<svg width="24" height="24" viewBox="0 0 24 24" fill="none" xmlns="http://www.w3.org/2000/svg">
<path d="M20.1292 18.3983H3.87109V16.295C3.87109 11.8055 7.51058 8.16602 12.0001 8.16602C16.4897 8.16602 20.1292 11.8055 20.1292 16.295V18.3983Z" fill="#FF8C22"/>
<path d="M12.001 9.56206C14.6487 9.56206 16.795 7.42152 16.795 4.78103C16.795 2.14054 14.6487 0 12.001 0C9.35338 0 7.20703 2.14054 7.20703 4.78103C7.20703 7.42152 9.35338 9.56206 12.001 9.56206Z" fill="#F5DCB4"/>
<path d="M17.4477 17.614H16.5884C16.4713 17.0402 16.2369 16.4849 15.8854 16.0035L16.5104 15.4296C16.6666 15.2816 16.6666 15.0594 16.5299 14.9113L15.7683 14.1894C15.6953 14.1199 15.5992 14.0796 15.4984 14.0761C15.3977 14.0727 15.2991 14.1064 15.2215 14.1708L14.5966 14.7447C14.1084 14.43 13.5419 14.1894 12.9171 14.0783V13.2638C12.9171 13.0602 12.7414 12.875 12.5266 12.875H11.4719C11.2766 12.8936 11.0813 13.0416 11.0813 13.2453L11.1009 14.0969C10.4955 14.208 9.90959 14.4302 9.40192 14.7633L8.7965 14.1708C8.72345 14.1013 8.62743 14.061 8.52664 14.0576C8.42586 14.0541 8.32732 14.0878 8.24972 14.1522L7.50766 14.8556C7.35146 15.0036 7.35146 15.2258 7.48811 15.3739L8.09353 15.9664C7.76159 16.4291 7.50766 16.966 7.39056 17.5583H6.53121C6.33592 17.5769 6.14062 17.7249 6.14062 17.9285V18.9282C6.16017 19.1133 6.31637 19.2985 6.53121 19.2985H7.39056C7.50766 19.8724 7.74204 20.4276 8.09353 20.909L7.46856 21.4829C7.31237 21.6309 7.31237 21.8531 7.44901 22.0012L8.19108 22.7045C8.26412 22.7741 8.36014 22.8144 8.46093 22.8178C8.56172 22.8212 8.66026 22.7875 8.73785 22.7231L9.36282 22.1493C9.85095 22.464 10.4175 22.7045 11.0422 22.8156V23.6301C11.0618 23.8151 11.218 24.0004 11.4328 24.0004H12.4875C12.6828 23.9818 12.878 23.8337 12.878 23.6301V22.8156C13.4835 22.7045 14.0693 22.4824 14.577 22.1493L15.1824 22.7417C15.2555 22.8112 15.3515 22.8515 15.4523 22.855C15.5531 22.8584 15.6516 22.8247 15.7292 22.7603L16.4713 22.0569C16.6275 21.9089 16.6275 21.6867 16.4908 21.5386L15.9049 20.9462C16.2369 20.4834 16.4908 19.9465 16.6079 19.3542H17.4673C17.6626 19.3356 17.8578 19.1876 17.8578 18.984V17.9843C17.8578 17.7621 17.6821 17.614 17.4477 17.614Z" fill="#666666"/>
<path d="M12.0006 20.685C13.3039 20.685 14.3605 19.6834 14.3605 18.448C14.3605 17.2125 13.3039 16.2109 12.0006 16.2109C10.6972 16.2109 9.64062 17.2125 9.64062 18.448C9.64062 19.6834 10.6972 20.685 12.0006 20.685Z" fill="#E6E6E6"/>
</svg>
