<svg width="24" height="24" viewBox="0 0 24 24" fill="none" xmlns="http://www.w3.org/2000/svg">
<g clip-path="url(#clip0_790_17919)">
<path d="M17.4019 1.90005C17.4019 0.852806 18.2509 0.00390625 19.2981 0.00390625H4.53914C3.70637 0.00390625 3.03125 0.679023 3.03125 1.5118V18.6829H17.4019L17.4019 1.90005Z" fill="#FFE07D"/>
<path d="M18.1518 0.00390625C17.1045 0.00390625 16.2556 0.852852 16.2556 1.90005V9.4195C16.2556 9.86193 15.9651 10.2555 15.5392 10.3756C12.3992 11.261 10.0977 14.1464 10.0977 17.5697C10.0977 18.4696 10.2568 19.3325 10.5484 20.1315H17.4004V1.90005C17.4004 0.852806 18.2493 0.00390625 19.2965 0.00390625H18.1518Z" fill="#FFD064"/>
<path d="M15.1121 3.27516H5.61219C5.41216 3.27516 5.25 3.11304 5.25 2.91297C5.25 2.71289 5.41211 2.55078 5.61219 2.55078H15.1121C15.3121 2.55078 15.4742 2.71289 15.4742 2.91297C15.4742 3.11304 15.3121 3.27516 15.1121 3.27516ZM15.1121 6.88662H5.61219C5.41216 6.88662 5.25 6.72451 5.25 6.52443C5.25 6.32436 5.41211 6.16225 5.61219 6.16225H15.1121C15.3121 6.16225 15.4742 6.32436 15.4742 6.52443C15.4742 6.72451 15.3121 6.88662 15.1121 6.88662ZM15.1121 10.4982H5.61219C5.56462 10.4982 5.51752 10.4888 5.47358 10.4706C5.42963 10.4524 5.3897 10.4257 5.35607 10.3921C5.32244 10.3585 5.29576 10.3185 5.27756 10.2746C5.25936 10.2307 5.24999 10.1836 5.25 10.136C5.24999 10.0884 5.25936 10.0413 5.27756 9.99738C5.29576 9.95344 5.32244 9.91351 5.35607 9.87987C5.3897 9.84624 5.42963 9.81956 5.47358 9.80136C5.51752 9.78316 5.56462 9.7738 5.61219 9.77381H15.1121C15.3121 9.77381 15.4742 9.93592 15.4742 10.136C15.4742 10.3361 15.3121 10.4982 15.1121 10.4982ZM15.1121 14.1097H5.61219C5.41216 14.1097 5.25 13.9476 5.25 13.7475C5.25 13.5474 5.41211 13.3853 5.61219 13.3853H15.1121C15.3121 13.3853 15.4742 13.5474 15.4742 13.7475C15.4742 13.9476 15.3121 14.1097 15.1121 14.1097Z" fill="#2B4D66"/>
<path d="M15.67 20.1328H2.68083C1.20026 20.1328 0 18.9326 0 17.452V16.9772C1.24252e-05 16.917 0.0239546 16.8592 0.0665621 16.8166C0.10917 16.774 0.166954 16.75 0.227211 16.75H15.67V20.1328Z" fill="#EAB14D"/>
<path d="M10.0977 17.571C10.0977 18.471 10.2568 19.3338 10.5484 20.1328H15.668V16.75H10.1427C10.1128 17.0226 10.0978 17.2967 10.0977 17.571Z" fill="#E49542"/>
<path d="M17.5743 23.9963C21.1232 23.9963 24.0002 21.1193 24.0002 17.5704C24.0002 14.0215 21.1232 11.1445 17.5743 11.1445C14.0254 11.1445 11.1484 14.0215 11.1484 17.5704C11.1484 21.1193 14.0254 23.9963 17.5743 23.9963Z" fill="#DD636E"/>
<path d="M17.5765 11.1445C17.4061 11.1445 17.2373 11.1513 17.0703 11.1643C20.3826 11.4224 22.99 14.1919 22.99 17.5704C22.99 20.9489 20.3826 23.7184 17.0703 23.9765C17.2373 23.9895 17.4061 23.9963 17.5765 23.9963C21.1254 23.9963 24.0023 21.1193 24.0023 17.5704C24.0023 14.0215 21.1254 11.1445 17.5765 11.1445Z" fill="#DA4A54"/>
<path d="M17.5742 22.3633C20.2213 22.3633 22.3672 20.2174 22.3672 17.5703C22.3672 14.9232 20.2213 12.7773 17.5742 12.7773C14.9271 12.7773 12.7812 14.9232 12.7812 17.5703C12.7812 20.2174 14.9271 22.3633 17.5742 22.3633Z" fill="#F4FBFF"/>
<path d="M17.5726 12.7773C17.3505 12.7773 17.132 12.7928 16.918 12.822C19.2554 13.1413 21.0564 15.1453 21.0564 17.5703C21.0564 19.9954 19.2553 21.9994 16.918 22.3186C17.132 22.3479 17.3505 22.3633 17.5726 22.3633C20.2196 22.3633 22.3655 20.2174 22.3655 17.5703C22.3655 14.9232 20.2196 12.7773 17.5726 12.7773Z" fill="#DAF1F4"/>
<path d="M17.5726 14.6149C17.525 14.6149 17.4779 14.6055 17.434 14.5873C17.39 14.5691 17.3501 14.5425 17.3165 14.5088C17.2828 14.4752 17.2562 14.4353 17.238 14.3913C17.2198 14.3474 17.2104 14.3003 17.2104 14.2527V14.0868C17.2104 14.0392 17.2198 13.9921 17.238 13.9482C17.2562 13.9042 17.2828 13.8643 17.3165 13.8307C17.3501 13.797 17.39 13.7704 17.434 13.7522C17.4779 13.734 17.525 13.7246 17.5726 13.7246C17.6202 13.7246 17.6673 13.734 17.7112 13.7522C17.7552 13.7704 17.7951 13.797 17.8287 13.8307C17.8624 13.8643 17.889 13.9042 17.9072 13.9482C17.9254 13.9921 17.9348 14.0392 17.9348 14.0868V14.2527C17.9348 14.3003 17.9254 14.3474 17.9072 14.3913C17.889 14.4353 17.8624 14.4752 17.8287 14.5088C17.7951 14.5425 17.7552 14.5691 17.7112 14.5873C17.6673 14.6055 17.6202 14.6149 17.5726 14.6149ZM19.9187 15.5867C19.8471 15.5867 19.777 15.5655 19.7175 15.5257C19.6579 15.4859 19.6115 15.4293 19.5841 15.3631C19.5566 15.2969 19.5495 15.2241 19.5635 15.1538C19.5775 15.0835 19.612 15.019 19.6627 14.9684L19.78 14.8511C19.8136 14.8175 19.8535 14.7908 19.8975 14.7726C19.9414 14.7544 19.9885 14.7451 20.0361 14.7451C20.0836 14.7451 20.1307 14.7545 20.1747 14.7727C20.2186 14.7909 20.2585 14.8176 20.2921 14.8512C20.3258 14.8849 20.3524 14.9248 20.3706 14.9688C20.3888 15.0127 20.3982 15.0598 20.3981 15.1074C20.3981 15.1549 20.3888 15.202 20.3705 15.2459C20.3523 15.2899 20.3256 15.3298 20.292 15.3634L20.1747 15.4807C20.1411 15.5143 20.1012 15.541 20.0573 15.5592C20.0134 15.5774 19.9663 15.5867 19.9187 15.5867ZM21.0564 17.9328H20.8905C20.6905 17.9328 20.5283 17.7707 20.5283 17.5706C20.5283 17.3705 20.6904 17.2084 20.8905 17.2084H21.0564C21.2564 17.2084 21.4186 17.3705 21.4186 17.5706C21.4186 17.7707 21.2564 17.9328 21.0564 17.9328ZM14.2547 17.9328H14.0887C13.8887 17.9328 13.7266 17.7707 13.7266 17.5706C13.7266 17.3705 13.8887 17.2084 14.0887 17.2084H14.2547C14.4547 17.2084 14.6168 17.3705 14.6168 17.5706C14.6168 17.7707 14.4547 17.9328 14.2547 17.9328ZM20.0361 20.3962C19.9885 20.3963 19.9414 20.387 19.8975 20.3688C19.8535 20.3506 19.8136 20.3239 19.78 20.2902L19.6627 20.173C19.6291 20.1394 19.6024 20.0994 19.5842 20.0555C19.566 20.0116 19.5566 19.9645 19.5566 19.9169C19.5566 19.8694 19.5659 19.8223 19.5841 19.7783C19.6023 19.7344 19.629 19.6945 19.6626 19.6608C19.6962 19.6272 19.7361 19.6004 19.78 19.5822C19.824 19.564 19.8711 19.5546 19.9186 19.5546C19.9662 19.5546 20.0133 19.5639 20.0572 19.5821C20.1012 19.6003 20.1411 19.627 20.1747 19.6607L20.292 19.7779C20.3427 19.8286 20.3772 19.8931 20.3912 19.9634C20.4052 20.0336 20.3981 20.1064 20.3707 20.1726C20.3433 20.2388 20.2969 20.2954 20.2373 20.3352C20.1777 20.375 20.1077 20.3963 20.0361 20.3962ZM17.5726 21.4166C17.525 21.4166 17.4779 21.4073 17.434 21.3891C17.39 21.3709 17.3501 21.3442 17.3165 21.3106C17.2828 21.2769 17.2562 21.237 17.238 21.1931C17.2198 21.1491 17.2104 21.102 17.2104 21.0544V20.8885C17.2104 20.841 17.2198 20.7939 17.238 20.7499C17.2562 20.706 17.2828 20.6661 17.3165 20.6324C17.3501 20.5988 17.39 20.5721 17.434 20.5539C17.4779 20.5357 17.525 20.5263 17.5726 20.5263C17.6202 20.5263 17.6673 20.5357 17.7112 20.5539C17.7552 20.5721 17.7951 20.5988 17.8287 20.6324C17.8624 20.6661 17.889 20.706 17.9072 20.7499C17.9254 20.7939 17.9348 20.841 17.9348 20.8885V21.0544C17.9348 21.102 17.9254 21.1491 17.9072 21.1931C17.889 21.237 17.8624 21.2769 17.8287 21.3106C17.7951 21.3442 17.7552 21.3709 17.7112 21.3891C17.6673 21.4073 17.6202 21.4166 17.5726 21.4166ZM15.1092 20.3962C15.0376 20.3962 14.9675 20.375 14.908 20.3352C14.8484 20.2954 14.802 20.2389 14.7746 20.1727C14.7472 20.1065 14.74 20.0337 14.754 19.9634C14.7679 19.8932 14.8024 19.8286 14.8531 19.778L14.9703 19.6607C15.0039 19.6269 15.0438 19.6001 15.0878 19.5818C15.1318 19.5635 15.179 19.554 15.2266 19.5539C15.2743 19.5539 15.3215 19.5632 15.3655 19.5814C15.4095 19.5996 15.4495 19.6263 15.4832 19.66C15.5169 19.6937 15.5436 19.7337 15.5618 19.7777C15.58 19.8218 15.5894 19.869 15.5893 19.9166C15.5893 19.9643 15.5798 20.0114 15.5615 20.0554C15.5431 20.0994 15.5163 20.1393 15.4825 20.1729L15.3653 20.2902C15.3317 20.3239 15.2917 20.3506 15.2478 20.3688C15.2039 20.387 15.1567 20.3963 15.1092 20.3962ZM15.2264 15.5867C15.1789 15.5867 15.1318 15.5774 15.0878 15.5592C15.0439 15.541 15.0039 15.5143 14.9703 15.4806L14.8531 15.3634C14.8193 15.3298 14.7924 15.2898 14.7741 15.2458C14.7558 15.2019 14.7463 15.1547 14.7463 15.107C14.7462 15.0594 14.7555 15.0122 14.7737 14.9682C14.7919 14.9241 14.8186 14.8841 14.8523 14.8504C14.886 14.8167 14.926 14.79 14.9701 14.7718C15.0141 14.7536 15.0613 14.7443 15.109 14.7444C15.1566 14.7444 15.2038 14.7539 15.2477 14.7722C15.2917 14.7905 15.3317 14.8174 15.3653 14.8511L15.4825 14.9684C15.5332 15.0191 15.5677 15.0836 15.5816 15.1538C15.5956 15.2241 15.5884 15.2969 15.561 15.3631C15.5336 15.4293 15.4872 15.4858 15.4276 15.5256C15.3681 15.5654 15.2981 15.5867 15.2264 15.5867Z" fill="#365E7D"/>
<path d="M18.5603 17.9328H17.5731C17.5256 17.9328 17.4785 17.9234 17.4345 17.9052C17.3906 17.887 17.3506 17.8603 17.317 17.8267C17.2834 17.7931 17.2567 17.7531 17.2385 17.7092C17.2203 17.6652 17.2109 17.6181 17.2109 17.5706V15.6591C17.2109 15.6115 17.2203 15.5644 17.2385 15.5205C17.2567 15.4765 17.2834 15.4366 17.317 15.4029C17.3506 15.3693 17.3906 15.3426 17.4345 15.3244C17.4785 15.3062 17.5256 15.2969 17.5731 15.2969C17.6207 15.2969 17.6678 15.3062 17.7117 15.3244C17.7557 15.3426 17.7956 15.3693 17.8292 15.4029C17.8629 15.4366 17.8896 15.4765 17.9078 15.5205C17.926 15.5644 17.9353 15.6115 17.9353 15.6591V17.2084H18.5603C18.7603 17.2084 18.9225 17.3705 18.9225 17.5706C18.9225 17.7706 18.7604 17.9328 18.5603 17.9328Z" fill="#2B4D66"/>
<path d="M20.8571 4.76202H17.4023V1.90005C17.4023 0.852806 18.2513 0.00390625 19.2985 0.00390625C20.3457 0.00390625 21.1946 0.852852 21.1946 1.90005V4.42448C21.1946 4.46881 21.1859 4.5127 21.169 4.55365C21.152 4.59461 21.1271 4.63182 21.0958 4.66317C21.0645 4.69451 21.0273 4.71937 20.9863 4.73633C20.9454 4.7533 20.9015 4.76202 20.8571 4.76202Z" fill="#EAB14D"/>
<path d="M19.9162 0.107388C19.7175 0.0388208 19.5087 0.00384784 19.2985 0.00390632C18.2513 0.00390632 17.4023 0.852853 17.4023 1.90005V4.76202H18.6378V1.90005C18.6377 1.06919 19.1724 0.363656 19.9162 0.107388Z" fill="#E49542"/>
</g>
<defs>
<clipPath id="clip0_790_17919">
<rect width="24" height="24" fill="white"/>
</clipPath>
</defs>
</svg>
