<svg width="40" height="40" viewBox="0 0 40 40" fill="none" xmlns="http://www.w3.org/2000/svg">
<g clip-path="url(#clip0_826_24918)">
<path d="M33.5499 30.6632H6.45312V27.1578C6.45312 19.6752 12.5189 13.6094 20.0015 13.6094C27.4841 13.6094 33.5499 19.6752 33.5499 27.1578V30.6632Z" fill="#FF8C22"/>
<path d="M20.0017 15.9368C24.4145 15.9368 27.9917 12.3692 27.9917 7.96839C27.9917 3.56757 24.4145 0 20.0017 0C15.589 0 12.0117 3.56757 12.0117 7.96839C12.0117 12.3692 15.589 15.9368 20.0017 15.9368Z" fill="#F5DCB4"/>
<path d="M28.0006 38.2842C25.1915 40.5743 16.4204 40.5743 13.6687 38.2842C10.8597 35.9941 11.1463 26.2039 13.6687 23.6276C16.1911 21.0512 25.4782 21.0512 28.0006 23.6276C30.523 26.2039 30.8096 35.9942 28.0006 38.2842Z" fill="#52CE06"/>
<g opacity="0.2">
<path d="M20.8836 34.2764C18.3612 36.2802 15.5521 37.3108 12.9151 37.368C10.9659 34.0474 11.3673 25.9748 13.6604 23.6274C15.7241 21.5091 22.2021 21.1083 25.9284 22.4251C26.8456 26.2038 24.9538 31.013 20.8836 34.2764Z" fill="white"/>
</g>
<path d="M19.5252 35.9373C19.1239 35.9373 18.7226 35.7655 18.4933 35.422L15.283 31.2998C14.8244 30.7273 14.939 29.9258 15.5123 29.4678C16.0856 29.0097 16.8881 29.1243 17.3468 29.6968L19.5252 32.5021L24.3407 26.2616C24.7993 25.6891 25.6019 25.5746 26.1752 26.0326C26.7484 26.4906 26.8631 27.2922 26.4045 27.8647L20.5571 35.422C20.2705 35.7083 19.9265 35.9373 19.5252 35.9373Z" fill="white"/>
</g>
<defs>
<clipPath id="clip0_826_24918">
<rect width="40" height="40" fill="white"/>
</clipPath>
</defs>
</svg>
