<svg width="24" height="24" viewBox="0 0 24 24" fill="none" xmlns="http://www.w3.org/2000/svg">
<g clip-path="url(#clip0_790_17780)">
<path d="M15.0003 23.1797H9.00025C8.56497 23.1797 8.23563 22.789 8.3065 22.3608L9.0565 17.8608C9.08399 17.6966 9.16877 17.5476 9.29579 17.44C9.42281 17.3325 9.58383 17.2735 9.75025 17.2734H14.2503C14.5938 17.2734 14.8873 17.5219 14.944 17.8608L15.694 22.3608C15.7648 22.7884 15.4361 23.1797 15.0003 23.1797Z" fill="#8BB9FF"/>
<path d="M15 23.1797H12V17.2734H14.25C14.5936 17.2734 14.887 17.5219 14.9437 17.8608L15.6937 22.3608C15.7645 22.7884 15.4359 23.1797 15 23.1797Z" fill="#6EA3E2"/>
<path d="M17.2031 22.4766C17.2031 22.8647 16.8881 23.1797 16.5 23.1797H7.5C7.11187 23.1797 6.79688 22.8647 6.79688 22.4766C6.79688 22.0884 7.11187 21.7734 7.5 21.7734H16.5C16.8881 21.7734 17.2031 22.0884 17.2031 22.4766Z" fill="#6EA3E2"/>
<path d="M17.2031 22.4766C17.2031 22.8647 16.8881 23.1797 16.5 23.1797H12V21.7734H16.5C16.8881 21.7734 17.2031 22.0884 17.2031 22.4766Z" fill="#336BD8"/>
<path d="M23.2969 2.92969V16.5703C23.2969 17.347 22.6673 17.9766 21.8906 17.9766H2.10938C1.33266 17.9766 0.703125 17.347 0.703125 16.5703V2.92969C0.703125 2.15297 1.33266 1.52344 2.10938 1.52344H21.8906C22.6673 1.52344 23.2969 2.15297 23.2969 2.92969Z" fill="#F6F9F9"/>
<path d="M23.2969 2.92969V16.5703C23.2969 17.347 22.6673 17.9766 21.8906 17.9766H12V1.52344H21.8906C22.6673 1.52344 23.2969 2.15297 23.2969 2.92969Z" fill="#E2DFF4"/>
<path d="M21.8906 0.820312H2.10938C0.946406 0.820312 0 1.76672 0 2.92969V16.5703C0 17.7333 0.946406 18.6797 2.10938 18.6797H21.8906C23.0536 18.6797 24 17.7333 24 16.5703V2.92969C24 1.76672 23.0536 0.820312 21.8906 0.820312ZM22.5938 16.5703C22.5938 16.958 22.2783 17.2734 21.8906 17.2734H2.10938C1.72172 17.2734 1.40625 16.958 1.40625 16.5703V2.92969C1.40625 2.54203 1.72172 2.22656 2.10938 2.22656H21.8906C22.2783 2.22656 22.5938 2.54203 22.5938 2.92969V16.5703Z" fill="#6EA3E2"/>
<path d="M24 2.92969V16.5703C24 17.7333 23.0536 18.6797 21.8906 18.6797H12V17.2734H21.8906C22.2783 17.2734 22.5938 16.958 22.5938 16.5703V2.92969C22.5938 2.54203 22.2783 2.22656 21.8906 2.22656H12V0.820312H21.8906C23.0536 0.820312 24 1.76672 24 2.92969Z" fill="#336BD8"/>
<path d="M12.7031 1.52344V3.02344C12.7031 3.41156 12.3881 3.72656 12 3.72656C11.6119 3.72656 11.2969 3.41156 11.2969 3.02344V1.52344C11.2969 1.13531 11.6119 0.820312 12 0.820312C12.3881 0.820312 12.7031 1.13531 12.7031 1.52344Z" fill="#6EA3E2"/>
<path d="M12.7031 1.52344V3.02344C12.7031 3.41156 12.3881 3.72656 12 3.72656V0.820312C12.3881 0.820312 12.7031 1.13531 12.7031 1.52344Z" fill="#336BD8"/>
<path d="M6.75 13.5234C6.36169 13.5234 6.04688 13.2086 6.04688 12.8203V8.27344C6.04688 7.88512 6.36169 7.57031 6.75 7.57031C7.13831 7.57031 7.45312 7.88512 7.45312 8.27344V12.8203C7.45312 13.2086 7.13831 13.5234 6.75 13.5234Z" fill="#FFB454"/>
<path d="M9.75 13.5234C9.36169 13.5234 9.04688 13.2086 9.04688 12.8203V10.5234C9.04688 10.1351 9.36169 9.82031 9.75 9.82031C10.1383 9.82031 10.4531 10.1351 10.4531 10.5234V12.8203C10.4531 13.2086 10.1383 13.5234 9.75 13.5234Z" fill="#E27A4E"/>
<path d="M16.875 13.8516C19.1273 13.8516 20.9531 12.0257 20.9531 9.77344C20.9531 7.52115 19.1273 5.69531 16.875 5.69531C14.6227 5.69531 12.7969 7.52115 12.7969 9.77344C12.7969 12.0257 14.6227 13.8516 16.875 13.8516Z" fill="#FFB454"/>
<path d="M20.9541 9.77344C20.9541 12.022 19.1245 13.8516 16.8759 13.8516C15.7866 13.8516 14.7628 13.4273 13.9922 12.6572L16.8759 9.77344V9.07031H20.2509C20.6391 9.07031 20.9541 9.38531 20.9541 9.77344Z" fill="#00CB75"/>
<path d="M20.9531 9.77344H16.875V5.69531C19.1236 5.69531 20.9531 7.52484 20.9531 9.77344Z" fill="#6EA3E2"/>
<path d="M3.75 13.5234C3.36169 13.5234 3.04688 13.2086 3.04688 12.8203V6.02344C3.04688 5.63512 3.36169 5.32031 3.75 5.32031C4.13831 5.32031 4.45312 5.63512 4.45312 6.02344V12.8203C4.45312 13.2086 4.13831 13.5234 3.75 13.5234Z" fill="#ACE233"/>
<path d="M3.04688 12.8203V13.5234C3.04688 13.9118 3.36169 14.2266 3.75 14.2266H9.75C10.1383 14.2266 10.4531 13.9118 10.4531 13.5234V12.8203H3.04688Z" fill="#E2DFF4"/>
</g>
<defs>
<clipPath id="clip0_790_17780">
<rect width="24" height="24" fill="white"/>
</clipPath>
</defs>
</svg>
