<svg width="40" height="40" viewBox="0 0 40 40" fill="none" xmlns="http://www.w3.org/2000/svg">
<g clip-path="url(#clip0_829_28115)">
<path d="M20 40C31.0457 40 40 31.0457 40 20C40 8.9543 31.0457 0 20 0C8.9543 0 0 8.9543 0 20C0 31.0457 8.9543 40 20 40Z" fill="#FF0000"/>
<path d="M40.0012 19.9997C40.0012 18.3196 39.7941 16.688 39.404 15.1288L34.0025 9.72742L32.1666 12.2127L25.9773 6.02344L6 29.955L15.5468 39.5018C16.9793 39.8277 18.4702 39.9997 20.0012 39.9997C31.047 39.9997 40.0012 31.0454 40.0012 19.9997Z" fill="#CC2E43"/>
<path d="M22.0469 9.72852H33.999V29.9561H22.0469V9.72852Z" fill="#CDD2E1"/>
<path d="M28.0259 19.7433C30.0337 19.7433 31.6612 18.1157 31.6612 16.108C31.6612 14.1002 30.0337 12.4727 28.0259 12.4727C26.0182 12.4727 24.3906 14.1002 24.3906 16.108C24.3906 18.1157 26.0182 19.7433 28.0259 19.7433Z" fill="#6F798E"/>
<path d="M6 9.72852H17.9521V29.9561H6V9.72852Z" fill="#E9EDF5"/>
<path d="M23.707 21.5332H32.3393V23.8838H23.707V21.5332Z" fill="#414952"/>
<path d="M23.707 25.457H32.3393V27.8076H23.707V25.457Z" fill="#707789"/>
<path d="M11.9752 19.7433C13.9829 19.7433 15.6105 18.1157 15.6105 16.108C15.6105 14.1002 13.9829 12.4727 11.9752 12.4727C9.96743 12.4727 8.33984 14.1002 8.33984 16.108C8.33984 18.1157 9.96743 19.7433 11.9752 19.7433Z" fill="#7E8596"/>
<path d="M7.66016 21.5332H16.2924V23.8838H7.66016V21.5332Z" fill="#636978"/>
<path d="M7.66016 25.457H16.2924V27.8076H7.66016V25.457Z" fill="#AFB4C8"/>
<path d="M14.0234 6.02344H25.9755V26.251H14.0234V6.02344Z" fill="white"/>
<path d="M19.9688 6.02344H25.9727V26.251H19.9688V6.02344Z" fill="#F2F6FC"/>
<path d="M23.4868 9.45805C23.0289 9.45805 22.6577 9.8293 22.6577 10.2872C22.6577 10.4734 22.7198 10.6448 22.8235 10.7832L21.7433 11.5559L20.458 10.1488C20.5721 10.0732 20.6657 9.97059 20.7304 9.85006C20.7951 9.72953 20.829 9.59485 20.8289 9.45805C20.8289 9.00016 20.4577 8.62891 19.9998 8.62891C19.5419 8.62891 19.1706 9.00016 19.1706 9.45805C19.1706 9.74648 19.318 10.0002 19.5415 10.1488L18.2563 11.5559L17.176 10.7832C17.2837 10.6402 17.3419 10.4661 17.3419 10.2872C17.3419 9.8293 16.9707 9.45805 16.5127 9.45805C16.0548 9.45805 15.6836 9.8293 15.6836 10.2872C15.6836 10.7451 16.0548 11.1163 16.5127 11.1163V14.5593H23.4867V11.1163C23.9446 11.1163 24.3159 10.7452 24.3159 10.2872C24.3159 9.8293 23.9448 9.45805 23.4868 9.45805Z" fill="#FFCE00"/>
<path d="M23.4835 9.45805C23.0256 9.45805 22.6544 9.8293 22.6544 10.2872C22.6544 10.4734 22.7166 10.6448 22.8202 10.7832L21.74 11.5559L20.4548 10.1488C20.5689 10.0732 20.6625 9.97059 20.7272 9.85006C20.7919 9.72953 20.8257 9.59485 20.8257 9.45805C20.8257 9.00016 20.4545 8.62891 19.9966 8.62891C19.9872 8.62891 19.978 8.63 19.9688 8.63031V14.5593H23.4835V11.1163C23.9414 11.1163 24.3127 10.7452 24.3127 10.2872C24.3127 9.82922 23.9415 9.45805 23.4835 9.45805Z" fill="#FDBA12"/>
<path d="M15.6836 16.8711H24.3159V19.2216H15.6836V16.8711Z" fill="#FE6A16"/>
<path d="M19.9688 16.8711H24.3127V19.2216H19.9688V16.8711Z" fill="#F24500"/>
<path d="M15.6836 20.7949H24.3159V23.1455H15.6836V20.7949Z" fill="#AFB4C8"/>
<path d="M19.9688 20.793H24.3127V23.1435H19.9688V20.793Z" fill="#707789"/>
</g>
<defs>
<clipPath id="clip0_829_28115">
<rect width="40" height="40" fill="white"/>
</clipPath>
</defs>
</svg>
