<svg width="24" height="24" viewBox="0 0 24 24" fill="none" xmlns="http://www.w3.org/2000/svg">
<g clip-path="url(#clip0_790_17865)">
<path d="M16.9426 22.5895L17.9073 22.9542L19.0602 22.5895L19.472 20.4719L19.0602 18.3542L16.9578 17.4102C16.4258 17.6608 15.9427 18.0043 15.5312 18.4247L16.9426 22.5895Z" fill="#59F3DE"/>
<path d="M23.9998 21.8807C23.9998 19.9104 22.8477 18.2071 21.1761 17.4141L19.0586 18.3513V22.5866L21.3614 23.2445L23.9998 22.5866V21.8807Z" fill="#00CDD6"/>
<path d="M16.2344 15.5286C16.2344 17.0855 17.501 18.3521 19.0579 18.3521L19.7638 15.5286L19.0579 12.7051C17.5011 12.7051 16.2344 13.9717 16.2344 15.5286Z" fill="#FFDDCE"/>
<path d="M21.8821 15.5286C21.8821 13.9718 20.6155 12.7051 19.0586 12.7051V18.3521C20.6154 18.3521 21.8821 17.0855 21.8821 15.5286Z" fill="#FFBDA9"/>
<path d="M19.0604 23.9997H16.9427L16.6016 23.1929L16.9427 22.5879H19.0604L19.4722 23.2938L19.0604 23.9997Z" fill="#00CDD6"/>
<path d="M19.0586 22.5879H23.9998V23.9997H19.0586V22.5879Z" fill="#00AFD2"/>
<path d="M0 21.8824V22.5883L2.47059 22.9962L4.94118 22.5883L5.36471 20.4707L4.94118 18.353L2.83718 17.4102C1.15694 18.2003 0 19.9115 0 21.8824Z" fill="#59F3DE"/>
<path d="M8.47072 18.4238C8.06072 18.0041 7.5792 17.6609 7.04875 17.4102L4.94141 18.3531V22.5884L6.00423 23.0163L7.05905 22.5884L8.47072 18.4238Z" fill="#00CDD6"/>
<path d="M2.11719 15.5286C2.11719 17.0855 3.38378 18.3521 4.94072 18.3521L5.6466 15.5286L4.94072 12.7051C3.38387 12.7051 2.11719 13.9717 2.11719 15.5286Z" fill="#FFDDCE"/>
<path d="M7.76494 15.5286C7.76494 13.9718 6.49835 12.7051 4.94141 12.7051V18.3521C6.49825 18.3521 7.76494 17.0855 7.76494 15.5286Z" fill="#FFBDA9"/>
<path d="M7.05859 21.8827V22.5886L9.52918 23.0165L11.9998 22.5886L12.4233 20.471L11.9998 18.3533L9.89539 17.4102C8.21572 18.2015 7.05859 19.9108 7.05859 21.8827Z" fill="#FF7C45"/>
<path d="M16.9412 21.8826C16.9412 19.9123 15.7892 18.2091 14.1177 17.416L12 18.3531V22.5884L14.1176 23.1935L16.9412 22.5884V21.8826Z" fill="#FF415C"/>
<path d="M9.17578 15.5286C9.17578 17.0855 10.4424 18.3521 11.9993 18.3521L12.7052 15.5286L11.9993 12.7051C10.4425 12.7051 9.17578 13.9717 9.17578 15.5286Z" fill="#FFDDCE"/>
<path d="M14.8235 15.5286C14.8235 13.9718 13.5569 12.7051 12 12.7051V18.3521C13.5568 18.3521 14.8235 17.0855 14.8235 15.5286Z" fill="#FFBDA9"/>
<path d="M4.23438 0V8.47059H9.58906L11.9991 10.8806L12.705 5.44028L11.9991 0H4.23438Z" fill="#ABE751"/>
<path d="M19.7647 8.47059V0H12V10.8806L14.41 8.47059H19.7647Z" fill="#00DA7B"/>
<path d="M7.05859 3.5293V4.94106H11.9998L12.7057 4.23518L11.9998 3.5293H7.05859Z" fill="#F2F4F9"/>
<path d="M16.9412 3.5293H12V4.94106H16.9412V3.5293Z" fill="#DBF0F9"/>
<path d="M4.94118 23.9997H0V22.5879H4.94118L5.36471 23.2938L4.94118 23.9997Z" fill="#00CDD6"/>
<path d="M7.05905 23.9997H4.94141V22.5879H7.05905L7.56103 23.2938L7.05905 23.9997Z" fill="#00AFD2"/>
<path d="M11.9998 23.9997H7.05859V22.5879H11.9998L12.4233 23.2938L11.9998 23.9997Z" fill="#FF415C"/>
<path d="M12 22.5879H16.9412V23.9997H12V22.5879Z" fill="#F20050"/>
</g>
<defs>
<clipPath id="clip0_790_17865">
<rect width="24" height="24" fill="white"/>
</clipPath>
</defs>
</svg>
