<svg width="40" height="40" viewBox="0 0 40 40" fill="none" xmlns="http://www.w3.org/2000/svg">
<g clip-path="url(#clip0_829_28167)">
<path d="M20 40C31.0457 40 40 31.0457 40 20C40 8.9543 31.0457 0 20 0C8.9543 0 0 8.9543 0 20C0 31.0457 8.9543 40 20 40Z" fill="#FFCE00"/>
<path d="M39.6305 23.847L29.6116 13.8281L20 36.0896L23.5903 39.6798C31.6725 38.2149 38.0634 31.8931 39.6305 23.847Z" fill="#FFAA00"/>
<path d="M20.0023 6.16602L10.3906 13.8273L20.0023 36.0887L20.0902 35.849L20.632 20.3145L20.0681 6.35305L20.0023 6.16602Z" fill="#FF73A5"/>
<path d="M20 6.16602V36.0887L29.6116 13.8273L20 6.16602Z" fill="#FF468C"/>
<path d="M20.0023 4.21484L10.3906 13.8265L14.846 15.389H20.0938L20.95 11.3159L20.092 4.40016L20.0023 4.21484Z" fill="#FF468C"/>
<path d="M29.6116 13.8265L20 4.21484L22.2605 14.5035L25.1562 15.389L29.6116 13.8265Z" fill="#D72878"/>
<path d="M20 8.98828L14.8438 15.3884L20 36.0874L20.0732 35.5984L20.6021 20.5871L20 9.18742V8.98828Z" fill="#FF5F96"/>
<path d="M20 15.166V36.0888L25.1562 15.3898L20 15.166Z" fill="#D72878"/>
<path d="M20 4.21484L14.8438 15.389H20.0916L20.6591 11.0637L20.0916 4.41328L20 4.21484Z" fill="#FF73A5"/>
<path d="M20 4.21484V15.389H25.1562L20 4.21484Z" fill="#FF468C"/>
</g>
<defs>
<clipPath id="clip0_829_28167">
<rect width="40" height="40" fill="white"/>
</clipPath>
</defs>
</svg>
