<svg width="40" height="40" viewBox="0 0 40 40" fill="none" xmlns="http://www.w3.org/2000/svg">
<g clip-path="url(#clip0_5276_17929)">
<path d="M35.6149 36.2519C29.4942 41.2484 10.3826 41.2484 4.38681 36.2519C-1.7339 31.2554 -1.10935 9.89543 4.38681 4.27438C9.88297 -1.34667 30.1187 -1.34667 35.6149 4.27438C41.1111 9.89543 41.7356 31.2555 35.6149 36.2519Z" fill="#52CE06"/>
<g opacity="0.2">
<path d="M20.1271 27.5088C14.6309 31.8807 8.51021 34.1291 2.76427 34.254C-1.48278 27.0091 -0.60836 9.39652 4.38814 4.27513C8.88498 -0.346602 23 -1.22103 31.1194 1.65194C33.1179 9.89618 28.9959 20.3887 20.1271 27.5088Z" fill="white"/>
</g>
<path d="M31.866 20.015C31.8672 20.3106 31.8099 20.6035 31.6974 20.8769C31.5848 21.1502 31.4192 21.3986 31.2102 21.6076C31.0012 21.8166 30.7528 21.9822 30.4795 22.0948C30.2061 22.2073 29.9132 22.2646 29.6176 22.2634H22.1229V29.7581C22.1241 30.0537 22.0668 30.3467 21.9542 30.62C21.8417 30.8934 21.6761 31.1417 21.4671 31.3507C21.2581 31.5598 21.0097 31.7253 20.7364 31.8379C20.463 31.9505 20.1701 32.0078 19.8745 32.0065C19.5789 32.0078 19.2859 31.9505 19.0126 31.8379C18.7392 31.7253 18.4909 31.5598 18.2818 31.3507C18.0728 31.1417 17.9072 30.8934 17.7947 30.62C17.6821 30.3467 17.6248 30.0537 17.626 29.7581V22.2634H10.1313C9.83564 22.2646 9.54271 22.2073 9.26936 22.0948C8.99602 21.9822 8.74766 21.8166 8.53863 21.6076C8.3296 21.3986 8.16403 21.1502 8.05147 20.8769C7.93892 20.6035 7.8816 20.3106 7.88283 20.015C7.8816 19.7194 7.93892 19.4265 8.05147 19.1531C8.16403 18.8798 8.3296 18.6314 8.53863 18.4224C8.74766 18.2133 8.99602 18.0478 9.26936 17.9352C9.54271 17.8227 9.83564 17.7653 10.1313 17.7666H17.626V10.2719C17.6247 9.97626 17.682 9.68334 17.7946 9.40999C17.9072 9.13664 18.0727 8.88829 18.2818 8.67926C18.4908 8.47023 18.7391 8.30466 19.0125 8.1921C19.2858 8.07954 19.5788 8.02223 19.8744 8.02346C20.17 8.02223 20.4629 8.07954 20.7363 8.1921C21.0096 8.30466 21.258 8.47023 21.467 8.67926C21.676 8.88829 21.8416 9.13664 21.9542 9.40999C22.0667 9.68334 22.124 9.97626 22.1228 10.2719V17.7666H29.6175C29.9131 17.7653 30.2061 17.8226 30.4794 17.9352C30.7528 18.0477 31.0012 18.2133 31.2102 18.4223C31.4192 18.6314 31.5848 18.8797 31.6974 19.1531C31.8099 19.4264 31.8673 19.7194 31.866 20.015Z" fill="white"/>
</g>
<defs>
<clipPath id="clip0_5276_17929">
<rect width="40" height="40" fill="white"/>
</clipPath>
</defs>
</svg>
