<svg width="24" height="24" viewBox="0 0 24 24" fill="none" xmlns="http://www.w3.org/2000/svg">
<g clip-path="url(#clip0_791_16435)">
<path d="M9.82003 14.7001L8.88553 14.9858C8.76137 15.0238 8.62791 15.0176 8.50778 14.9683C8.38766 14.9191 8.28827 14.8298 8.22647 14.7156L5.89453 10.4102L7.92666 9.78906L10.1502 13.8942C10.1899 13.9675 10.2128 14.0487 10.2173 14.1319C10.2218 14.2151 10.2077 14.2983 10.1761 14.3754C10.1445 14.4525 10.0962 14.5216 10.0346 14.5778C9.97303 14.6339 9.89973 14.6757 9.82003 14.7001Z" fill="#C2185B"/>
<path d="M12.2965 0.414629C12.1502 0.458077 12.0138 0.529931 11.8952 0.626089C11.7766 0.722246 11.6781 0.840823 11.6053 0.975047C11.5326 1.10927 11.487 1.25651 11.4711 1.40837C11.4553 1.56022 11.4695 1.71371 11.513 1.86007L14.2366 10.7714C14.3314 11.0637 14.5372 11.3071 14.8098 11.4491C15.0823 11.5911 15.3997 11.6204 15.6936 11.5306C15.9876 11.4409 16.2344 11.2392 16.3811 10.9692C16.5278 10.6991 16.5625 10.3822 16.4778 10.0868L13.7534 1.17494C13.6609 0.881 13.4555 0.635802 13.1823 0.493234C12.9092 0.350666 12.5905 0.322393 12.2965 0.414629Z" fill="#EEEEEE"/>
<path d="M14.2373 10.7689L11.5127 1.85757C11.4784 1.74483 11.4617 1.62744 11.4632 1.50957C9.84566 3.74214 7.21035 4.99708 5.50804 5.62445C5.2221 5.73001 4.34254 5.9807 4.34254 5.9807C4.1306 6.0455 3.93351 6.15141 3.76251 6.29238C3.59151 6.43335 3.44995 6.60663 3.34591 6.80232C3.24188 6.998 3.17742 7.21226 3.15619 7.43286C3.13497 7.65346 3.15741 7.87608 3.22223 8.08801L3.88016 10.2398C4.01119 10.6676 4.30674 11.0258 4.70184 11.2358C5.09694 11.4457 5.55924 11.4901 5.9871 11.3593C5.9871 11.3593 6.85654 11.0754 7.1526 11.0031C8.9151 10.5718 11.8013 10.1381 14.3901 11.0844C14.3231 10.9878 14.2716 10.8814 14.2373 10.7689ZM15.7285 7.63051C16.165 7.39765 16.5071 7.02031 16.6961 6.56307C16.8852 6.10583 16.9094 5.59711 16.7647 5.12396C16.6201 4.65081 16.3155 4.24264 15.903 3.96929C15.4906 3.69595 14.996 3.57442 14.5039 3.62551L15.7285 7.63051ZM19.6695 3.64783L18.5939 3.9767C18.4512 4.02031 18.3317 4.11881 18.2616 4.25053C18.1916 4.38225 18.1767 4.53641 18.2204 4.67908C18.264 4.82174 18.3625 4.94125 18.4942 5.01129C18.6259 5.08134 18.7801 5.09619 18.9227 5.05258L19.9986 4.72351C20.0702 4.7027 20.1369 4.66787 20.1948 4.62105C20.2528 4.57424 20.3009 4.51637 20.3363 4.45081C20.3718 4.38525 20.3938 4.31331 20.4012 4.23915C20.4086 4.165 20.4012 4.09012 20.3794 4.01886C20.3576 3.9476 20.3218 3.88138 20.2742 3.82405C20.2266 3.76672 20.1681 3.71942 20.102 3.6849C20.036 3.65038 19.9638 3.62933 19.8895 3.62296C19.8153 3.6166 19.7405 3.62505 19.6695 3.64783ZM20.0198 7.9997L19.026 7.4717C18.9608 7.43703 18.903 7.38985 18.856 7.33285C18.809 7.27585 18.7736 7.21015 18.752 7.13949C18.7304 7.06884 18.7229 6.99462 18.73 6.92107C18.737 6.84752 18.7585 6.77608 18.7932 6.71082C18.8278 6.64557 18.875 6.58779 18.932 6.54077C18.989 6.49376 19.0547 6.45843 19.1254 6.43681C19.196 6.41518 19.2702 6.40768 19.3438 6.41474C19.4173 6.4218 19.4888 6.44328 19.554 6.47795L20.5478 7.00614C20.613 7.04082 20.6708 7.08801 20.7178 7.14502C20.7648 7.20204 20.8002 7.26775 20.8218 7.33841C20.8434 7.40907 20.8509 7.4833 20.8438 7.55686C20.8367 7.63041 20.8153 7.70186 20.7806 7.76711C20.7459 7.83236 20.6987 7.89014 20.6417 7.93715C20.5847 7.98416 20.519 8.01948 20.4483 8.0411C20.3776 8.06271 20.3034 8.0702 20.2299 8.06313C20.1563 8.05606 20.0849 8.03457 20.0196 7.99989L20.0198 7.9997ZM17.8553 0.9197L17.3271 1.91345C17.2924 1.9787 17.2709 2.05014 17.2639 2.1237C17.2568 2.19725 17.2643 2.27148 17.2859 2.34214C17.3295 2.48485 17.4281 2.60438 17.5599 2.67442C17.6917 2.74446 17.8459 2.75928 17.9886 2.71563C18.1313 2.67197 18.2508 2.57342 18.3209 2.44164L18.849 1.44789C18.9191 1.31611 18.9339 1.1619 18.8903 1.01919C18.8466 0.876483 18.748 0.756961 18.6163 0.686919C18.4845 0.616877 18.3303 0.602053 18.1876 0.645708C18.0449 0.689362 17.9253 0.78792 17.8553 0.9197Z" fill="#E91E63"/>
<path d="M7.15253 11.0034L5.98703 11.3597C5.55905 11.4905 5.09661 11.446 4.70145 11.2359C4.30629 11.0258 4.01078 10.6674 3.87991 10.2394L3.22216 8.08838C3.15737 7.87645 3.13496 7.65383 3.15621 7.43324C3.17746 7.21265 3.24195 6.99841 3.346 6.80274C3.45005 6.60708 3.59162 6.43382 3.76262 6.29287C3.93363 6.15192 4.13073 6.04603 4.34266 5.98125L5.50816 5.625L7.15253 11.0034Z" fill="#EEEEEE"/>
<path d="M2.4375 13.0312V22.0312C2.4375 22.4788 2.61529 22.908 2.93176 23.2245C3.24822 23.541 3.67745 23.7188 4.125 23.7188H19.875C20.3226 23.7188 20.7518 23.541 21.0682 23.2245C21.3847 22.908 21.5625 22.4788 21.5625 22.0312V13.0312C21.5625 12.8821 21.5032 12.739 21.3977 12.6335C21.2923 12.528 21.1492 12.4688 21 12.4688H3C2.85082 12.4688 2.70774 12.528 2.60225 12.6335C2.49676 12.739 2.4375 12.8821 2.4375 13.0312Z" fill="#FFC107"/>
<path d="M15 12.4688V23.7188H19.875C20.3226 23.7188 20.7518 23.541 21.0682 23.2245C21.3847 22.908 21.5625 22.4788 21.5625 22.0312V13.0312C21.5625 12.8821 21.5032 12.739 21.3977 12.6335C21.2923 12.528 21.1492 12.4688 21 12.4688H15Z" fill="#FFB300"/>
<path d="M0.527179 14.729L2.0988 12.8662C2.20441 12.7411 2.33605 12.6405 2.48453 12.5715C2.63301 12.5025 2.79477 12.4668 2.95849 12.4668H14.9988L12.8144 15.0552C12.656 15.2429 12.4585 15.3938 12.2358 15.4972C12.0131 15.6007 11.7704 15.6543 11.5248 15.6543H0.956929C0.849725 15.6543 0.744758 15.6236 0.654393 15.5659C0.564027 15.5083 0.492026 15.426 0.446869 15.3287C0.401712 15.2315 0.38528 15.1234 0.399508 15.0171C0.413736 14.9109 0.458032 14.8109 0.527179 14.729Z" fill="#FFD54F"/>
<path d="M23.4716 14.7309L21.9 12.8681C21.7944 12.743 21.6628 12.6425 21.5143 12.5735C21.3658 12.5045 21.204 12.4688 21.0403 12.4688H15L17.1844 15.0572C17.3428 15.2449 17.5403 15.3957 17.763 15.4992C17.9858 15.6027 18.2284 15.6563 18.474 15.6562H23.0419C23.1491 15.6562 23.254 15.6256 23.3444 15.5679C23.4348 15.5102 23.5068 15.4279 23.5519 15.3307C23.5971 15.2335 23.6135 15.1254 23.5993 15.0191C23.5851 14.9128 23.5408 14.8129 23.4716 14.7309Z" fill="#FFC107"/>
<path d="M6.84375 20.5312H4.40625C4.25092 20.5312 4.125 20.6572 4.125 20.8125V21.75C4.125 21.9053 4.25092 22.0312 4.40625 22.0312H6.84375C6.99908 22.0312 7.125 21.9053 7.125 21.75V20.8125C7.125 20.6572 6.99908 20.5312 6.84375 20.5312Z" fill="white"/>
<path d="M19.0064 5.3245L20.0821 4.99562C20.1881 4.96323 20.2866 4.91029 20.3721 4.83981C20.4576 4.76933 20.5284 4.68271 20.5805 4.58487C20.6325 4.48704 20.6647 4.37992 20.6753 4.26963C20.686 4.15933 20.6748 4.04803 20.6424 3.94206C20.61 3.8361 20.557 3.73755 20.4866 3.65205C20.4161 3.56654 20.3295 3.49576 20.2316 3.44374C20.1338 3.39171 20.0267 3.35947 19.9164 3.34884C19.8061 3.33822 19.6948 3.34942 19.5888 3.38181L18.5129 3.71069C18.407 3.74309 18.3084 3.79605 18.2229 3.86654C18.1374 3.93702 18.0667 4.02366 18.0146 4.1215C17.9626 4.21934 17.9304 4.32647 17.9198 4.43677C17.9092 4.54707 17.9204 4.65838 17.9528 4.76434C17.9852 4.87031 18.0381 4.96885 18.1086 5.05435C18.1791 5.13985 18.2658 5.21062 18.3636 5.26264C18.4614 5.31466 18.5686 5.34689 18.6789 5.3575C18.7892 5.36812 18.9005 5.3569 19.0064 5.3245ZM18.6774 4.24825C18.6774 4.24825 19.4851 4.0045 19.7533 3.91937C19.7888 3.90752 19.8265 3.90292 19.8639 3.90582C19.9013 3.90872 19.9377 3.91908 19.971 3.93628C20.0044 3.95349 20.0339 3.97719 20.058 4.00599C20.082 4.03479 20.1001 4.0681 20.111 4.10398C20.122 4.13986 20.1257 4.17757 20.1219 4.21489C20.1181 4.25221 20.1068 4.28839 20.0888 4.3213C20.0708 4.3542 20.0463 4.38317 20.017 4.4065C19.9876 4.42983 19.9538 4.44704 19.9177 4.45712L18.8424 4.78619C18.771 4.80802 18.694 4.80062 18.6281 4.76561C18.5622 4.73061 18.5129 4.67087 18.4911 4.59953C18.4693 4.5282 18.4767 4.45111 18.5117 4.38523C18.5467 4.31935 18.6064 4.27008 18.6778 4.24825H18.6774ZM18.8958 7.72244L19.8896 8.25081C20.0869 8.35285 20.3164 8.37299 20.5285 8.30684C20.7405 8.2407 20.9179 8.09361 21.0222 7.89749C21.1265 7.70138 21.1492 7.47205 21.0855 7.25928C21.0217 7.0465 20.8767 6.86744 20.6818 6.76094L19.688 6.23256C19.4907 6.13052 19.2611 6.11039 19.0491 6.17653C18.8371 6.24268 18.6597 6.38976 18.5554 6.58588C18.4511 6.782 18.4284 7.01132 18.4921 7.2241C18.5558 7.43687 18.7009 7.61594 18.8958 7.72244ZM19.0436 6.84569C19.0609 6.81305 19.0845 6.78415 19.113 6.76064C19.1415 6.73713 19.1743 6.71946 19.2097 6.70865C19.245 6.69783 19.2821 6.69409 19.3189 6.69762C19.3557 6.70116 19.3914 6.7119 19.424 6.72925L20.4178 7.25744C20.4504 7.27478 20.4792 7.29838 20.5027 7.32689C20.5262 7.3554 20.5439 7.38825 20.5547 7.42358C20.5655 7.45891 20.5692 7.49601 20.5656 7.53278C20.5621 7.56955 20.5513 7.60526 20.534 7.63787C20.5167 7.67049 20.4931 7.69936 20.4645 7.72286C20.436 7.74635 20.4032 7.764 20.3679 7.77479C20.3325 7.78558 20.2954 7.78932 20.2587 7.78577C20.2219 7.78222 20.1862 7.77147 20.1536 7.75412L19.1598 7.22594C19.0942 7.19066 19.0453 7.13092 19.0235 7.05972C19.0017 6.98852 19.0089 6.9116 19.0436 6.84569ZM18.5701 2.57594L19.0983 1.58219C19.1511 1.48428 19.184 1.37691 19.1952 1.26623C19.2064 1.15555 19.1955 1.04377 19.1633 0.937296C19.1311 0.830827 19.0781 0.731778 19.0075 0.645848C18.9369 0.559918 18.8499 0.488803 18.7517 0.436596C18.6535 0.384388 18.5459 0.352117 18.4352 0.341641C18.3244 0.331165 18.2127 0.342689 18.1064 0.375551C18.0002 0.408414 17.9014 0.461965 17.8159 0.533124C17.7304 0.604284 17.6599 0.691646 17.6083 0.790186L17.0799 1.78375C17.0264 1.88169 16.9928 1.98928 16.9812 2.10028C16.9695 2.21128 16.98 2.32349 17.012 2.43041C17.0441 2.53732 17.097 2.63682 17.1677 2.72314C17.2385 2.80947 17.3256 2.8809 17.4242 2.93329C17.5227 2.98569 17.6307 3.01802 17.7418 3.0284C17.853 3.03878 17.965 3.02701 18.0716 2.99378C18.1781 2.96054 18.277 2.90649 18.3625 2.83477C18.448 2.76305 18.5185 2.67507 18.5698 2.57594H18.5701ZM17.6932 2.42819C17.6606 2.41086 17.6317 2.38727 17.6081 2.35877C17.5846 2.33027 17.567 2.29742 17.5561 2.26209C17.5453 2.22676 17.5416 2.18965 17.5451 2.15287C17.5487 2.11609 17.5594 2.08037 17.5768 2.04775L18.1049 1.054C18.1221 1.02115 18.1457 0.992031 18.1742 0.968311C18.2027 0.944592 18.2356 0.926741 18.271 0.915787C18.3064 0.904833 18.3437 0.900992 18.3806 0.904484C18.4175 0.907976 18.4533 0.918733 18.4861 0.936135C18.5188 0.953538 18.5478 0.977243 18.5714 1.00589C18.5949 1.03453 18.6125 1.06755 18.6233 1.10304C18.634 1.13853 18.6376 1.17579 18.6339 1.21268C18.6302 1.24957 18.6192 1.28536 18.6016 1.318L18.0734 2.31175C18.0384 2.3776 17.9787 2.42687 17.9074 2.4487C17.8361 2.47054 17.7591 2.46316 17.6932 2.42819Z" fill="black"/>
<path d="M21.8421 22.0298V15.936H23.0402C23.201 15.936 23.3583 15.89 23.4938 15.8035C23.6293 15.717 23.7373 15.5936 23.805 15.4479C23.8728 15.3021 23.8975 15.14 23.8762 14.9807C23.855 14.8214 23.7886 14.6714 23.685 14.5485L22.1129 12.6855C21.981 12.529 21.8164 12.4031 21.6308 12.3168C21.4451 12.2305 21.2428 12.1859 21.0381 12.186H10.5921C10.7193 12.0364 10.7962 11.8507 10.8122 11.655C10.8281 11.4593 10.7822 11.2636 10.681 11.0953L10.5089 10.8092C11.77 10.7498 13.0312 10.9258 14.2279 11.3284C14.4398 11.5883 14.735 11.767 15.0635 11.8342C15.3921 11.9013 15.7337 11.8527 16.0306 11.6967C16.3274 11.5407 16.5612 11.2869 16.6922 10.9782C16.8233 10.6696 16.8435 10.3251 16.7496 10.0032L16.0628 7.75972C16.4954 7.47194 16.8237 7.05222 16.9987 6.56297C17.1738 6.07371 17.1862 5.54104 17.0343 5.04412C16.8824 4.5472 16.5742 4.11257 16.1555 3.80483C15.7368 3.4971 15.23 3.33268 14.7104 3.33603L14.0243 1.09185C13.9214 0.772085 13.711 0.497755 13.4289 0.315357C13.1469 0.132959 12.8104 0.0537149 12.4765 0.091058C12.1427 0.128401 11.8321 0.280034 11.5972 0.520252C11.3624 0.760471 11.2179 1.0745 11.1882 1.4091C9.65817 3.47685 7.20811 4.69972 5.41186 5.36235C5.13904 5.46303 4.27523 5.7096 4.26136 5.71353C3.76238 5.86676 3.34454 6.21165 3.09951 6.67254C2.85448 7.13343 2.80226 7.67269 2.9543 8.17203L3.61205 10.3236C3.7672 10.8223 4.11325 11.2394 4.57473 11.4839C5.0362 11.7285 5.57565 11.7806 6.07542 11.629L6.21005 11.5855L6.53517 12.186H2.95861C2.75391 12.1859 2.55165 12.2304 2.36599 12.3167C2.18034 12.4029 2.01578 12.5286 1.88386 12.6852L0.311858 14.5485C0.208282 14.6714 0.141961 14.8214 0.120698 14.9807C0.0994353 15.14 0.124115 15.302 0.191833 15.4478C0.259552 15.5935 0.367491 15.7169 0.502953 15.8034C0.638414 15.8899 0.795762 15.9359 0.956483 15.936H2.15461V22.0298C2.1552 22.5517 2.36282 23.0522 2.7319 23.4212C3.10098 23.7903 3.6014 23.9979 4.12336 23.9985H19.8734C20.3953 23.9979 20.8957 23.7903 21.2648 23.4212C21.6339 23.0522 21.8415 22.5517 21.8421 22.0298ZM21.0381 12.7485C21.161 12.7484 21.2824 12.7753 21.3938 12.8271C21.5051 12.8789 21.6038 12.9545 21.6829 13.0485L23.2551 14.9113C23.2895 14.9523 23.3116 15.0023 23.3186 15.0553C23.3256 15.1084 23.3174 15.1623 23.2948 15.2109C23.2723 15.2594 23.2363 15.3005 23.1912 15.3293C23.1461 15.3581 23.0937 15.3734 23.0402 15.3735H18.4724C18.2678 15.3736 18.0656 15.329 17.8801 15.2427C17.6946 15.1565 17.5302 15.0307 17.3984 14.8742L15.6038 12.7485H21.0381ZM16.4967 5.20803C16.604 5.56144 16.6035 5.93885 16.4952 6.29197C16.3869 6.64509 16.1757 6.95786 15.8886 7.19028L14.8842 3.90435C15.2522 3.93637 15.6023 4.07756 15.8896 4.30983C16.1769 4.5421 16.3883 4.85486 16.4967 5.20803ZM12.3797 0.682721C12.6025 0.61477 12.843 0.63675 13.0498 0.743953C13.2566 0.851157 13.4131 1.03506 13.486 1.25628C14.1559 3.48753 15.5076 7.94647 16.2104 10.1676C16.2743 10.392 16.2476 10.6324 16.1361 10.8374C16.0246 11.0423 15.8372 11.1953 15.6141 11.2635C15.391 11.3317 15.1501 11.3097 14.943 11.2022C14.736 11.0947 14.5794 10.9102 14.5069 10.6885C13.8261 8.4606 12.4859 3.9981 11.7829 1.77697C11.72 1.55277 11.7472 1.31287 11.8587 1.10844C11.9702 0.904015 12.1572 0.751246 12.3797 0.682721ZM11.311 2.15985L13.9019 10.6348C11.5971 9.97278 9.13636 10.2598 7.34498 10.6723L5.85492 5.79566C7.57017 5.13603 9.77105 3.99772 11.3117 2.15985H11.311ZM8.87761 10.9562C9.20825 10.9085 9.54036 10.8716 9.87342 10.8456L10.1984 11.3863C10.227 11.4349 10.2444 11.4894 10.2491 11.5456C10.2538 11.6019 10.2458 11.6584 10.2256 11.7111C10.2054 11.7638 10.1736 11.8113 10.1325 11.85C10.0915 11.8887 10.0422 11.9176 9.98836 11.9346L9.48961 12.087L8.87761 10.9562ZM8.90461 12.186H7.17492L6.75642 11.413C7.25907 11.2595 7.77114 11.1388 8.28942 11.0517L8.90461 12.186ZM5.90592 11.0927C5.5493 11.2 5.16476 11.162 4.83596 10.9872C4.50715 10.8124 4.26069 10.5148 4.15017 10.1592L3.49223 8.0076C3.38338 7.65179 3.41998 7.26735 3.59401 6.93847C3.76804 6.6096 4.06532 6.3631 4.42073 6.25297C4.44848 6.24528 4.95623 6.10016 5.3243 5.9841L6.80029 10.812C6.43055 10.9217 5.92954 11.085 5.90592 11.0927ZM0.956483 15.3735C0.902898 15.3735 0.850435 15.3582 0.805269 15.3293C0.760104 15.3005 0.724116 15.2594 0.701541 15.2108C0.678966 15.1622 0.670743 15.1081 0.677841 15.055C0.68494 15.0019 0.707063 14.9519 0.741607 14.911L2.31361 13.0485C2.39272 12.9545 2.49146 12.8789 2.60288 12.8271C2.71431 12.7753 2.83572 12.7485 2.95861 12.7485H14.3929L12.5984 14.8742C12.4666 15.0307 12.3021 15.1565 12.1166 15.2427C11.9311 15.329 11.7289 15.3736 11.5244 15.3735H0.956483ZM14.7171 23.436H4.12336C3.75052 23.4356 3.39306 23.2874 3.12943 23.0237C2.86579 22.7601 2.7175 22.4026 2.71711 22.0298V15.936H11.5244C11.8111 15.9365 12.0944 15.8741 12.3544 15.7533C12.6145 15.6326 12.8449 15.4564 13.0296 15.237L14.7171 13.2368V23.436ZM19.8734 23.436H15.2796V13.236L16.9671 15.2363C17.1517 15.4557 17.3821 15.6321 17.6422 15.753C17.9022 15.8739 18.1856 15.9364 18.4724 15.936H21.2796V22.0298C21.2792 22.4026 21.1309 22.7601 20.8673 23.0237C20.6037 23.2874 20.2462 23.4356 19.8734 23.436Z" fill="black"/>
<path d="M13.4062 21.6562H11.7188C11.6442 21.6562 11.5726 21.6859 11.5199 21.7386C11.4671 21.7914 11.4375 21.8629 11.4375 21.9375C11.4375 22.0121 11.4671 22.0836 11.5199 22.1364C11.5726 22.1891 11.6442 22.2188 11.7188 22.2188H13.4062C13.4808 22.2188 13.5524 22.1891 13.6051 22.1364C13.6579 22.0836 13.6875 22.0121 13.6875 21.9375C13.6875 21.8629 13.6579 21.7914 13.6051 21.7386C13.5524 21.6859 13.4808 21.6562 13.4062 21.6562ZM11.4375 20.4375C11.4375 20.5121 11.4671 20.5836 11.5199 20.6364C11.5726 20.6891 11.6442 20.7188 11.7188 20.7188H13.4062C13.4808 20.7188 13.5524 20.6891 13.6051 20.6364C13.6579 20.5836 13.6875 20.5121 13.6875 20.4375C13.6875 20.3629 13.6579 20.2914 13.6051 20.2386C13.5524 20.1859 13.4808 20.1563 13.4062 20.1563H11.7188C11.6442 20.1562 11.5726 20.1859 11.5199 20.2386C11.4671 20.2914 11.4375 20.3629 11.4375 20.4375ZM6.84375 20.25H4.40625C4.25707 20.25 4.11399 20.3093 4.0085 20.4148C3.90301 20.5202 3.84375 20.6633 3.84375 20.8125V21.75C3.84375 21.8992 3.90301 22.0423 4.0085 22.1477C4.11399 22.2532 4.25707 22.3125 4.40625 22.3125H6.84375C6.99293 22.3125 7.13601 22.2532 7.2415 22.1477C7.34699 22.0423 7.40625 21.8992 7.40625 21.75V20.8125C7.40625 20.6633 7.34699 20.5202 7.2415 20.4148C7.13601 20.3093 6.99293 20.25 6.84375 20.25ZM4.40625 21.75V20.8125H6.84375V21.75H4.40625Z" fill="black"/>
</g>
<defs>
<clipPath id="clip0_791_16435">
<rect width="24" height="24" fill="white"/>
</clipPath>
</defs>
</svg>
