<svg width="40" height="40" viewBox="0 0 40 40" fill="none" xmlns="http://www.w3.org/2000/svg">
<g clip-path="url(#clip0_826_24876)">
<path d="M22.3438 1.25H3.51562C1.57023 1.25 0 2.82023 0 4.76562V11.7969C0 13.7421 1.57023 15.3125 3.51562 15.3125H4.76562V18.8281C4.76562 19.2969 5.04688 19.7188 5.49219 19.9062C5.63281 19.9766 5.79688 20 5.9375 20C6.24219 20 6.54688 19.8828 6.75773 19.6484L11.1172 15.3125H15.3125C15.4062 15.3125 15.5001 15.3125 15.5938 15.2655L24.9688 12.9218C25.4845 12.8046 25.8594 12.3359 25.8594 11.7969V4.76562C25.8594 2.82023 24.2891 1.25 22.3438 1.25Z" fill="#73BCFF"/>
<path d="M25.8594 4.76562V11.7969C25.8594 12.3359 25.4845 12.8047 24.9688 12.9218L15.5938 15.2655C15.5001 15.3125 15.4062 15.3125 15.3125 15.3125H12.9688V1.25H22.3438C24.2891 1.25 25.8594 2.82023 25.8594 4.76562Z" fill="#3AAAFF"/>
<path d="M36.4844 10.625H17.6562C15.7109 10.625 14.1406 12.1952 14.1406 14.1406V21.1719C14.1406 21.7109 14.5155 22.1797 15.0312 22.2968C15.2421 22.3672 24.4765 24.6875 24.6875 24.6875H29.6093L33.1719 28.9531C33.4766 29.328 33.9921 29.4687 34.4609 29.3046C34.9298 29.1405 35.2345 28.6952 35.2345 28.2031V24.6875H36.4845C38.4298 24.6875 40.0001 23.1171 40.0001 21.1719V14.1406C40 12.1952 38.4298 10.625 36.4844 10.625Z" fill="#FF6C6C"/>
<path d="M40 14.1406V21.1719C40 23.1171 38.4298 24.6875 36.4844 24.6875H35.2344V28.2031C35.2344 28.6952 34.9297 29.1405 34.4609 29.3046C33.992 29.4687 33.4766 29.328 33.1718 28.9531L29.6092 24.6875H27.0312V10.625H36.4844C38.4298 10.625 40 12.1952 40 14.1406Z" fill="#FF4949"/>
<path d="M22.3438 20H3.51562C1.57023 20 0 21.5702 0 23.5156V30.5469C0 32.4921 1.57023 34.0625 3.51562 34.0625H4.76562V37.5781C4.76562 38.0469 5.04688 38.4688 5.49219 38.6562C5.91406 38.8438 6.42977 38.75 6.75773 38.3984L11.1172 34.0625H22.3438C24.2891 34.0625 25.8594 32.4921 25.8594 30.5469V23.5156C25.8594 21.5702 24.2891 20 22.3438 20Z" fill="#FFD400"/>
<path d="M25.8594 23.5156V30.5469C25.8594 32.4921 24.2891 34.0625 22.3438 34.0625H12.9688V20H22.3438C24.2891 20 25.8594 21.5702 25.8594 23.5156Z" fill="#FDBF00"/>
<path d="M31.7188 18.8281C32.366 18.8281 32.8906 18.3035 32.8906 17.6562C32.8906 17.009 32.366 16.4844 31.7188 16.4844C31.0715 16.4844 30.5469 17.009 30.5469 17.6562C30.5469 18.3035 31.0715 18.8281 31.7188 18.8281Z" fill="#384949"/>
<path d="M28.2031 17.6562C28.2031 18.3124 27.6876 18.8281 27.0312 18.8281C26.3749 18.8281 25.8594 18.3124 25.8594 17.6562C25.8594 16.9999 26.3749 16.4844 27.0312 16.4844C27.6876 16.4844 28.2031 16.9999 28.2031 17.6562Z" fill="#3E5959"/>
<path d="M22.3438 18.8281C22.991 18.8281 23.5156 18.3035 23.5156 17.6562C23.5156 17.009 22.991 16.4844 22.3438 16.4844C21.6965 16.4844 21.1719 17.009 21.1719 17.6562C21.1719 18.3035 21.6965 18.8281 22.3438 18.8281Z" fill="#3E5959"/>
<path d="M17.6562 8.28125C18.3035 8.28125 18.8281 7.75658 18.8281 7.10938C18.8281 6.46217 18.3035 5.9375 17.6562 5.9375C17.009 5.9375 16.4844 6.46217 16.4844 7.10938C16.4844 7.75658 17.009 8.28125 17.6562 8.28125Z" fill="#384949"/>
<path d="M14.1406 7.10938C14.1406 7.76555 13.6251 8.28125 12.9688 8.28125C12.3124 8.28125 11.7969 7.76555 11.7969 7.10938C11.7969 6.45305 12.3124 5.9375 12.9688 5.9375C13.6251 5.9375 14.1406 6.45305 14.1406 7.10938Z" fill="#3E5959"/>
<path d="M8.28125 8.28125C8.92846 8.28125 9.45312 7.75658 9.45312 7.10938C9.45312 6.46217 8.92846 5.9375 8.28125 5.9375C7.63404 5.9375 7.10938 6.46217 7.10938 7.10938C7.10938 7.75658 7.63404 8.28125 8.28125 8.28125Z" fill="#3E5959"/>
<path d="M17.6562 28.2031C18.3035 28.2031 18.8281 27.6785 18.8281 27.0312C18.8281 26.384 18.3035 25.8594 17.6562 25.8594C17.009 25.8594 16.4844 26.384 16.4844 27.0312C16.4844 27.6785 17.009 28.2031 17.6562 28.2031Z" fill="#384949"/>
<path d="M14.1406 27.0312C14.1406 27.6874 13.6251 28.2031 12.9688 28.2031C12.3124 28.2031 11.7969 27.6874 11.7969 27.0312C11.7969 26.3749 12.3124 25.8594 12.9688 25.8594C13.6251 25.8594 14.1406 26.3749 14.1406 27.0312Z" fill="#3E5959"/>
<path d="M8.28125 28.2031C8.92846 28.2031 9.45312 27.6785 9.45312 27.0312C9.45312 26.384 8.92846 25.8594 8.28125 25.8594C7.63404 25.8594 7.10938 26.384 7.10938 27.0312C7.10938 27.6785 7.63404 28.2031 8.28125 28.2031Z" fill="#3E5959"/>
<path d="M14.1406 27.0312C14.1406 27.6874 13.6251 28.2031 12.9688 28.2031V25.8594C13.6251 25.8594 14.1406 26.3749 14.1406 27.0312ZM12.9688 8.28125V5.9375C13.6251 5.9375 14.1406 6.45305 14.1406 7.10938C14.1406 7.76555 13.6251 8.28125 12.9688 8.28125ZM28.2031 17.6562C28.2031 18.3124 27.6876 18.8281 27.0312 18.8281V16.4844C27.6876 16.4844 28.2031 16.9999 28.2031 17.6562Z" fill="#384949"/>
</g>
<defs>
<clipPath id="clip0_826_24876">
<rect width="40" height="40" fill="white"/>
</clipPath>
</defs>
</svg>
