<svg width="40" height="40" viewBox="0 0 40 40" fill="none" xmlns="http://www.w3.org/2000/svg">
<g clip-path="url(#clip0_826_24837)">
<path d="M40 20C40 31.0459 31.0459 40 20 40C8.95414 40 0 31.0459 0 20C0 8.95414 8.95414 0 20 0C31.0459 0 40 8.95414 40 20Z" fill="#FA5D0F"/>
<path d="M39.8541 22.4135L29.491 12.0508L10.5078 33.1063L17.2064 39.8052C18.1318 39.9348 19.065 40 19.9994 40.0002C30.2283 40.0002 38.6624 32.3211 39.8541 22.4135Z" fill="#EF3800"/>
<path d="M24.7064 7.26562H10.5078V33.1061H29.4909V12.0505L24.7064 7.26562Z" fill="white"/>
<path d="M29.4902 12.0505L24.7056 7.26562H19.9336V33.1061H29.4902V12.0505Z" fill="#F2F6FC"/>
<path d="M24.707 12.0505H29.4916L24.707 7.26562V12.0505Z" fill="#CDD2E1"/>
<path d="M12.7383 14.1406H27.2594V15.9402H12.7383V14.1406Z" fill="#DCE1EB"/>
<path d="M19.9336 14.1406H27.2594V15.9402H19.9336V14.1406Z" fill="#CDD2E1"/>
<path d="M12.7383 17.418H27.2594V19.2179H12.7383V17.418Z" fill="#DCE1EB"/>
<path d="M19.9336 17.418H27.2594V19.2179H19.9336V17.418Z" fill="#CDD2E1"/>
<path d="M12.7383 20.6992H27.2594V22.4988H12.7383V20.6992Z" fill="#DCE1EB"/>
<path d="M19.9336 20.6992H27.2594V22.4988H19.9336V20.6992Z" fill="#CDD2E1"/>
<path d="M12.7383 23.9766H27.2594V25.7762H12.7383V23.9766Z" fill="#DCE1EB"/>
<path d="M19.9336 23.9766H27.2594V25.7762H19.9336V23.9766Z" fill="#CDD2E1"/>
<path d="M12.7383 27.2539H27.2594V29.0535H12.7383V27.2539Z" fill="#DCE1EB"/>
<path d="M19.9336 27.2539H27.2594V29.0535H19.9336V27.2539Z" fill="#CDD2E1"/>
<path d="M31.0307 29.7028C30.7947 29.7031 30.561 29.6568 30.343 29.5665C30.125 29.4762 29.927 29.3438 29.7604 29.1767L25.616 25.0324C24.9145 24.3304 24.9145 23.1931 25.616 22.4911C26.318 21.7896 27.4553 21.7893 28.1573 22.4911L32.3016 26.6354C33.0031 27.337 33.0031 28.4747 32.3016 29.1767C32.1348 29.3437 31.9367 29.4762 31.7186 29.5665C31.5006 29.6567 31.2668 29.7031 31.0308 29.7028H31.0307Z" fill="#23272B"/>
<path d="M32.3039 26.6365L28.1596 22.4922C27.4699 21.8026 26.3605 21.7925 25.6562 22.4581L32.338 29.1399C33.0037 28.4356 32.9933 27.326 32.3039 26.6365Z" fill="#23272B"/>
<path d="M21.8359 26.2109C17.9803 26.2109 14.8438 23.0741 14.8438 19.2188C14.8438 15.3631 17.9803 12.2266 21.8359 12.2266C25.6916 12.2266 28.8281 15.3631 28.8281 19.2188C28.8281 23.0741 25.6916 26.2109 21.8359 26.2109ZM21.8359 14.4141C19.1867 14.4141 17.0312 16.5692 17.0312 19.2188C17.0312 21.868 19.1867 24.0234 21.8359 24.0234C24.4852 24.0234 26.6406 21.868 26.6406 19.2188C26.6406 16.5692 24.4852 14.4141 21.8359 14.4141Z" fill="#414952"/>
<path d="M21.8344 14.4141C24.4836 14.4141 26.6391 16.5692 26.6391 19.2188C26.6391 20.3958 26.2127 21.4749 25.5075 22.3111L27.0577 23.8614C28.1573 22.6257 28.8266 20.9989 28.8266 19.2188C28.8266 15.3631 25.69 12.2266 21.8344 12.2266C20.0539 12.2266 18.4273 12.8955 17.1914 13.9953L18.7417 15.5453C19.5782 14.8401 20.6573 14.4141 21.8344 14.4141Z" fill="#23272B"/>
</g>
<defs>
<clipPath id="clip0_826_24837">
<rect width="40" height="40" fill="white"/>
</clipPath>
</defs>
</svg>
