<svg width="40" height="40" viewBox="0 0 40 40" fill="none" xmlns="http://www.w3.org/2000/svg">
<g clip-path="url(#clip0_826_24864)">
<path d="M31.0156 1.02148H8.98438C4.03039 1.02148 0 5.05188 0 10.0059V20.9434C0 25.5004 3.41 29.2758 7.8125 29.8516V37.8048C7.8125 38.0366 7.88124 38.2632 8.01001 38.4559C8.13878 38.6486 8.32181 38.7988 8.53595 38.8875C8.75008 38.9762 8.98571 38.9994 9.21303 38.9542C9.44036 38.909 9.64916 38.7973 9.81305 38.6334L18.5187 29.9277H31.0156C35.9696 29.9277 40 25.8973 40 20.9434V10.0059C40 5.05188 35.9696 1.02148 31.0156 1.02148Z" fill="#FF674F"/>
<path d="M31.015 1.02148H20V29.9277H31.015C35.969 29.9277 39.9994 25.8973 39.9994 20.9434V10.0059C39.9994 5.05188 35.969 1.02148 31.015 1.02148Z" fill="#F2472C"/>
<path d="M26.855 16.9104L20.8286 22.9367C20.5997 23.1655 20.2999 23.28 20 23.28C19.7 23.28 19.4002 23.1656 19.1714 22.9368L13.1449 16.9105C11.2539 15.0195 11.2538 11.9426 13.1446 10.0516C15.0344 8.1618 18.1092 8.15992 20.0005 10.0471C20.916 9.13344 22.1318 8.63086 23.4256 8.63086C24.7211 8.63086 25.9391 9.13539 26.855 10.0516C27.7711 10.9676 28.2757 12.1855 28.2757 13.4809C28.2757 14.7763 27.7711 15.9943 26.855 16.9104Z" fill="white"/>
<path d="M23.4251 8.63281C22.1316 8.63281 20.9155 9.13578 20 10.0491V23.282C20.1538 23.2821 20.3062 23.2518 20.4483 23.1929C20.5904 23.134 20.7195 23.0477 20.8281 22.9387L26.8545 16.9124C27.7706 15.9963 28.2752 14.7784 28.2752 13.483C28.2752 12.1875 27.7706 10.9695 26.8545 10.0536C25.9386 9.13734 24.7206 8.63281 23.4251 8.63281Z" fill="#FFEDCD"/>
</g>
<defs>
<clipPath id="clip0_826_24864">
<rect width="40" height="40" fill="white"/>
</clipPath>
</defs>
</svg>
