<svg width="24" height="24" viewBox="0 0 24 24" fill="none" xmlns="http://www.w3.org/2000/svg">
<path fill-rule="evenodd" clip-rule="evenodd" d="M12 24C18.6274 24 24 18.6274 24 12C24 5.37256 18.6274 0 12 0C5.37259 0 0 5.37256 0 12C0 18.6274 5.37259 24 12 24ZM15.6837 9.729C15.6837 10.6431 14.9398 11.3872 14.0255 11.3872C13.1112 11.3872 12.3674 10.6431 12.3673 9.729V5.6582C12.3673 4.74365 13.1112 4 14.0255 4C14.9398 4 15.6837 4.74365 15.6837 5.6582V9.729ZM18.3419 11.3872H17.1524C16.8935 11.3872 16.6836 11.1772 16.6836 10.9185V9.729C16.6836 8.81445 17.4275 8.0708 18.3419 8.0708C19.2562 8.0708 20 8.81445 20 9.729C20 10.6431 19.2562 11.3872 18.3419 11.3872ZM5.65814 11.6328H9.72882C10.6432 11.6328 11.387 10.8887 11.387 9.97461C11.387 9.06006 10.6432 8.31641 9.72882 8.31641H5.65814C4.74384 8.31641 4 9.06006 4 9.97461C4 10.8887 4.74384 11.6328 5.65814 11.6328ZM10.9182 7.31641H9.72879C8.81448 7.31641 8.07065 6.57227 8.07065 5.6582C8.07065 4.74365 8.81448 4 9.72879 4C10.6431 4 11.387 4.74365 11.387 5.6582V6.84766C11.387 7.10645 11.1771 7.31641 10.9182 7.31641ZM9.97443 12.6128C9.06012 12.6128 8.31628 13.3569 8.31628 14.271V18.3418C8.31628 19.2563 9.06012 20 9.97443 20C10.8888 20 11.6327 19.2563 11.6327 18.3418V14.271C11.6327 13.3569 10.8888 12.6128 9.97443 12.6128ZM5.65814 12.6128H6.8476C7.10648 12.6128 7.31635 12.8228 7.31638 13.0815V14.271C7.31638 15.1855 6.57251 15.9292 5.65814 15.9292C4.74384 15.9292 4 15.1855 4 14.271C4 13.3569 4.74384 12.6128 5.65814 12.6128ZM18.3418 12.3672H14.2712C13.3568 12.3672 12.613 13.1113 12.613 14.0254C12.613 14.9399 13.3568 15.6836 14.2712 15.6836H18.3419C19.2562 15.6836 20 14.9399 20 14.0254C20 13.1113 19.2561 12.3672 18.3418 12.3672ZM13.0818 16.6836H14.2712C15.1855 16.6836 15.9294 17.4272 15.9294 18.3418C15.9294 19.2563 15.1855 20 14.2712 20C13.3568 20 12.613 19.2563 12.613 18.3418V17.1523C12.613 16.8936 12.8229 16.6836 13.0818 16.6836Z" fill="#1D2432"/>
</svg>
