<svg width="40" height="40" viewBox="0 0 40 40" fill="none" xmlns="http://www.w3.org/2000/svg">
<path d="M33.5968 30.6632H6.5V27.1578C6.5 19.6752 12.5658 13.6094 20.0484 13.6094C27.531 13.6094 33.5968 19.6752 33.5968 27.1578V30.6632Z" fill="#4A7AFF"/>
<path d="M20.0486 15.9368C24.4613 15.9368 28.0386 12.3692 28.0386 7.96839C28.0386 3.56757 24.4613 0 20.0486 0C15.6358 0 12.0586 3.56757 12.0586 7.96839C12.0586 12.3692 15.6358 15.9368 20.0486 15.9368Z" fill="#F5DCB4"/>
<path d="M28.0695 26.7606C27.0972 26.7606 26.3089 27.5489 26.3089 28.5212C26.3089 28.9167 26.441 29.2805 26.6611 29.5745L24.3673 31.2153L21.6382 28.2273C21.8804 28.0669 22.0791 27.849 22.2165 27.593C22.3539 27.3371 22.4258 27.0511 22.4257 26.7606C22.4257 25.7883 21.6375 25 20.6651 25C19.6928 25 18.9045 25.7883 18.9045 26.7606C18.9045 27.3731 19.2175 27.9119 19.692 28.2273L16.9629 31.2153L14.6691 29.5745C14.8976 29.2709 15.0213 28.9012 15.0212 28.5212C15.0212 27.5489 14.2331 26.7606 13.2606 26.7606C12.2883 26.7606 11.5 27.5489 11.5 28.5212C11.5 29.4935 12.2883 30.2819 13.2606 30.2819V37.5928H28.0694V30.2819C29.0417 30.2819 29.83 29.4937 29.83 28.5212C29.8302 27.5489 29.042 26.7606 28.0695 26.7606Z" fill="#FFCE00"/>
</svg>
