<svg width="40" height="40" viewBox="0 0 40 40" fill="none" xmlns="http://www.w3.org/2000/svg">
<g clip-path="url(#clip0_826_23277)">
<path d="M32.7898 12.8094V30.2336H3.75V12.8094L18.2703 4.09766L32.7898 12.8094Z" fill="#FFA001"/>
<path d="M32.7852 12.8094V30.2336H18.2656V4.09766L32.7852 12.8094Z" fill="#F87F02"/>
<path d="M0 12.8098L3.7475 4.09766H18.2677L14.5202 12.8098H0Z" fill="#FFDA2D"/>
<path d="M36.5371 12.8098L32.7896 4.09766H18.2695L22.017 12.8098H36.5371Z" fill="#FCBE00"/>
<path d="M8.41406 22.9316H10.7578V25.2754H8.41406V22.9316Z" fill="#FFDA2D"/>
<path d="M40.0023 27.3297C40.0023 32.0633 36.1648 35.9008 31.4312 35.9008C26.6969 35.9008 22.8594 32.0633 22.8594 27.3297C22.8594 22.5953 26.6969 18.7578 31.4312 18.7578C36.1648 18.7578 40.0023 22.5952 40.0023 27.3297Z" fill="#83E470"/>
<path d="M40.0008 27.3297C40.0008 32.0633 36.1633 35.9008 31.4297 35.9008V18.7578C36.1633 18.7578 40.0008 22.5952 40.0008 27.3297Z" fill="#01B763"/>
<path d="M35.9164 25.9422L31.4313 30.4273L30.6539 31.2047L26.9453 27.496L28.6031 25.839L30.6539 27.8898L31.4313 27.1125L34.2586 24.2852L35.9164 25.9422Z" fill="#F3FDFF"/>
<path d="M35.9148 25.9422L31.4297 30.4273V27.1125L34.257 24.2852L35.9148 25.9422Z" fill="#D7F3F7"/>
</g>
<defs>
<clipPath id="clip0_826_23277">
<rect width="40" height="40" fill="white"/>
</clipPath>
</defs>
</svg>
