<svg width="40" height="40" viewBox="0 0 40 40" fill="none" xmlns="http://www.w3.org/2000/svg">
<g clip-path="url(#clip0_831_32289)">
<path d="M16.3667 24.5014L14.8092 24.9777C14.6023 25.0409 14.3798 25.0306 14.1796 24.9485C13.9794 24.8664 13.8138 24.7176 13.7108 24.5273L9.82422 17.3517L13.2111 16.3164L16.917 23.1583C16.9832 23.2804 17.0214 23.4157 17.0289 23.5544C17.0363 23.6931 17.0129 23.8317 16.9602 23.9603C16.9076 24.0888 16.827 24.204 16.7244 24.2976C16.6217 24.3912 16.4996 24.4608 16.3667 24.5014Z" fill="#2618C2"/>
<path d="M20.4916 0.694303C20.2477 0.766716 20.0204 0.886474 19.8227 1.04674C19.6251 1.207 19.4609 1.40463 19.3396 1.62833C19.2184 1.85204 19.1424 2.09745 19.1159 2.35053C19.0895 2.60362 19.1132 2.85944 19.1857 3.10337L23.725 17.9556C23.883 18.4428 24.2261 18.8484 24.6804 19.0851C25.1346 19.3218 25.6636 19.3706 26.1535 19.221C26.6433 19.0713 27.0548 18.7353 27.2992 18.2852C27.5437 17.8351 27.6016 17.307 27.4604 16.8146L22.9197 1.96149C22.7656 1.47159 22.4233 1.06293 21.968 0.825312C21.5127 0.587698 20.9816 0.540577 20.4916 0.694303Z" fill="#EEEEEE"/>
<path d="M23.7275 17.9521L19.1866 3.09986C19.1293 2.91195 19.1015 2.7163 19.1041 2.51986C16.4081 6.2408 12.016 8.33236 9.17876 9.37799C8.7022 9.55393 7.23626 9.97174 7.23626 9.97174C6.88304 10.0797 6.55455 10.2563 6.26954 10.4912C5.98454 10.7262 5.74861 11.015 5.57522 11.3411C5.40184 11.6672 5.29439 12.0243 5.25902 12.392C5.22365 12.7597 5.26105 13.1307 5.36908 13.4839L6.46564 17.0702C6.68402 17.7832 7.1766 18.3803 7.8351 18.7302C8.4936 19.0801 9.2641 19.1542 9.9772 18.9361C9.9772 18.9361 11.4263 18.463 11.9197 18.3424C14.8572 17.6236 19.6675 16.9008 23.9822 18.478C23.8706 18.3169 23.7847 18.1395 23.7275 17.9521ZM26.2128 12.7214C26.9404 12.3333 27.5105 11.7044 27.8256 10.9424C28.1406 10.1803 28.181 9.33242 27.9399 8.54384C27.6988 7.75525 27.1911 7.07497 26.5038 6.61939C25.8164 6.16382 24.9921 5.96128 24.1719 6.04643L26.2128 12.7214ZM32.7813 6.08361L30.9885 6.63174C30.7507 6.70443 30.5515 6.86859 30.4348 7.08813C30.318 7.30766 30.2933 7.56458 30.366 7.80236C30.4386 8.04015 30.6028 8.23932 30.8223 8.35606C31.0419 8.4728 31.2988 8.49755 31.5366 8.42486L33.3297 7.87643C33.449 7.84173 33.5601 7.78369 33.6568 7.70566C33.7534 7.62764 33.8336 7.53119 33.8926 7.42193C33.9516 7.31266 33.9884 7.19275 34.0007 7.06916C34.013 6.94557 34.0006 6.82077 33.9643 6.70201C33.928 6.58324 33.8684 6.47288 33.7891 6.37733C33.7097 6.28178 33.6122 6.20294 33.5021 6.14541C33.392 6.08787 33.2716 6.05278 33.1479 6.04218C33.0241 6.03157 32.8995 6.04565 32.7813 6.08361ZM33.365 13.3367L31.7088 12.4567C31.6 12.399 31.5037 12.3203 31.4253 12.2253C31.347 12.1303 31.2881 12.0208 31.2521 11.9031C31.216 11.7853 31.2035 11.6616 31.2153 11.539C31.2271 11.4164 31.2629 11.2974 31.3206 11.1886C31.3784 11.0799 31.4571 10.9836 31.5521 10.9052C31.6471 10.8268 31.7566 10.768 31.8743 10.7319C31.9921 10.6959 32.1158 10.6834 32.2384 10.6951C32.3609 10.7069 32.48 10.7427 32.5888 10.8005L34.245 11.6808C34.3538 11.7386 34.4501 11.8173 34.5284 11.9123C34.6068 12.0073 34.6656 12.1168 34.7017 12.2346C34.7377 12.3524 34.7502 12.4761 34.7384 12.5987C34.7266 12.7213 34.6908 12.8403 34.633 12.9491C34.5752 13.0578 34.4965 13.1541 34.4015 13.2325C34.3065 13.3108 34.197 13.3697 34.0792 13.4057C33.9614 13.4418 33.8377 13.4542 33.7151 13.4425C33.5925 13.4307 33.4735 13.3949 33.3647 13.3371L33.365 13.3367ZM29.7575 1.53674L28.8772 3.19299C28.8194 3.30174 28.7836 3.42081 28.7718 3.5434C28.76 3.666 28.7725 3.78971 28.8085 3.90748C28.8813 4.14533 29.0455 4.34453 29.2652 4.46127C29.4848 4.57801 29.7418 4.60271 29.9797 4.52996C30.2175 4.4572 30.4167 4.29293 30.5335 4.0733L31.4138 2.41705C31.5305 2.19742 31.5552 1.94041 31.4825 1.70256C31.4097 1.46471 31.2454 1.26551 31.0258 1.14877C30.8062 1.03203 30.5492 1.00733 30.3113 1.08009C30.0735 1.15284 29.8743 1.31711 29.7575 1.53674Z" fill="#1E3EE9"/>
<path d="M11.9196 18.343L9.97709 18.9367C9.26378 19.1548 8.49305 19.0806 7.83445 18.7304C7.17585 18.3803 6.68333 17.7828 6.46521 17.0695L5.36896 13.4845C5.26099 13.1313 5.22364 12.7603 5.25905 12.3926C5.29447 12.025 5.40195 11.6679 5.57536 11.3418C5.74878 11.0157 5.98473 10.7269 6.26974 10.492C6.55475 10.2571 6.88324 10.0806 7.23646 9.97266L9.17896 9.37891L11.9196 18.343Z" fill="#EEEEEE"/>
<path d="M4.0625 21.7188V36.7188C4.0625 37.4647 4.35882 38.18 4.88626 38.7075C5.41371 39.2349 6.12908 39.5312 6.875 39.5312H33.125C33.8709 39.5312 34.5863 39.2349 35.1137 38.7075C35.6412 38.18 35.9375 37.4647 35.9375 36.7188V21.7188C35.9375 21.4701 35.8387 21.2317 35.6629 21.0558C35.4871 20.88 35.2486 20.7812 35 20.7812H5C4.75136 20.7812 4.5129 20.88 4.33709 21.0558C4.16127 21.2317 4.0625 21.4701 4.0625 21.7188Z" fill="#FFC107"/>
<path d="M25 20.7812V39.5312H33.125C33.8709 39.5312 34.5863 39.2349 35.1137 38.7075C35.6412 38.18 35.9375 37.4647 35.9375 36.7188V21.7188C35.9375 21.4701 35.8387 21.2317 35.6629 21.0558C35.4871 20.88 35.2486 20.7812 35 20.7812H25Z" fill="#FFB300"/>
<path d="M0.877329 24.5516L3.4967 21.4469C3.67271 21.2383 3.89211 21.0708 4.13958 20.9558C4.38706 20.8408 4.65664 20.7813 4.92952 20.7812H24.9967L21.3561 25.0953C21.0921 25.4081 20.7629 25.6595 20.3917 25.832C20.0205 26.0044 19.616 26.0938 19.2067 26.0938H1.59358C1.41491 26.0937 1.23996 26.0426 1.08935 25.9465C0.938743 25.8504 0.818741 25.7132 0.743479 25.5511C0.668217 25.3891 0.64083 25.2089 0.664544 25.0318C0.688258 24.8547 0.762085 24.6881 0.877329 24.5516Z" fill="#FFD54F"/>
<path d="M39.1194 24.5516L36.5 21.4469C36.324 21.2383 36.1046 21.0708 35.8571 20.9558C35.6096 20.8408 35.3401 20.7813 35.0672 20.7812H25L28.6406 25.0953C28.9046 25.4081 29.2338 25.6595 29.605 25.832C29.9763 26.0044 30.3807 26.0938 30.79 26.0938H38.4031C38.5818 26.0937 38.7567 26.0426 38.9074 25.9465C39.058 25.8504 39.178 25.7132 39.2532 25.5511C39.3285 25.3891 39.3559 25.2089 39.3322 25.0318C39.3084 24.8547 39.2346 24.6881 39.1194 24.5516Z" fill="#FFC107"/>
<path d="M11.4062 34.2188H7.34375C7.08487 34.2188 6.875 34.4286 6.875 34.6875V36.25C6.875 36.5089 7.08487 36.7188 7.34375 36.7188H11.4062C11.6651 36.7188 11.875 36.5089 11.875 36.25V34.6875C11.875 34.4286 11.6651 34.2188 11.4062 34.2188Z" fill="white"/>
<path d="M31.6761 8.87742L33.4689 8.32929C33.6455 8.27531 33.8098 8.18707 33.9523 8.0696C34.0948 7.95214 34.2127 7.80777 34.2994 7.64471C34.3862 7.48166 34.4399 7.30312 34.4576 7.1193C34.4753 6.93548 34.4566 6.74996 34.4027 6.57336C34.3487 6.39675 34.2604 6.2325 34.143 6.09C34.0255 5.9475 33.8811 5.82952 33.7181 5.74282C33.555 5.65611 33.3765 5.60237 33.1927 5.58466C33.0088 5.56695 32.8233 5.58562 32.6467 5.63961L30.8536 6.18773C30.677 6.24174 30.5127 6.33 30.3703 6.44748C30.2278 6.56496 30.1098 6.70936 30.0231 6.87243C29.9364 7.03549 29.8827 7.21404 29.865 7.39787C29.8473 7.5817 29.866 7.76722 29.92 7.94383C29.974 8.12043 30.0623 8.28467 30.1798 8.42717C30.2972 8.56967 30.4416 8.68763 30.6047 8.77432C30.7678 8.86101 30.9463 8.91474 31.1301 8.93243C31.314 8.95012 31.4995 8.93143 31.6761 8.87742ZM31.1277 7.08367C31.1277 7.08367 32.4739 6.67742 32.9208 6.53554C32.9801 6.51579 33.0428 6.50811 33.1051 6.51295C33.1675 6.51779 33.2282 6.53506 33.2838 6.56373C33.3393 6.5924 33.3886 6.6319 33.4287 6.6799C33.4688 6.7279 33.4988 6.78343 33.5171 6.84322C33.5354 6.90302 33.5415 6.96587 33.5352 7.02807C33.5288 7.09027 33.51 7.15057 33.48 7.20542C33.45 7.26026 33.4093 7.30854 33.3603 7.34742C33.3113 7.3863 33.2551 7.41499 33.1948 7.43179L31.4027 7.98023C31.2838 8.01662 31.1553 8.00428 31.0455 7.94594C30.9357 7.8876 30.8536 7.78803 30.8172 7.66914C30.7808 7.55025 30.7931 7.42177 30.8515 7.31197C30.9098 7.20218 31.0094 7.12005 31.1283 7.08367H31.1277ZM31.4917 12.874L33.148 13.7546C33.4768 13.9247 33.8594 13.9582 34.2128 13.848C34.5662 13.7377 34.8619 13.4926 35.0357 13.1657C35.2095 12.8389 35.2474 12.4567 35.1411 12.102C35.0349 11.7474 34.7931 11.449 34.4683 11.2715L32.812 10.3909C32.4832 10.2208 32.1006 10.1872 31.7472 10.2975C31.3938 10.4077 31.0981 10.6529 30.9243 10.9797C30.7505 11.3066 30.7126 11.6888 30.8189 12.0434C30.9251 12.398 31.1669 12.6965 31.4917 12.874ZM31.738 11.4127C31.7668 11.3583 31.8062 11.3102 31.8537 11.271C31.9012 11.2318 31.9559 11.2024 32.0148 11.1843C32.0737 11.1663 32.1355 11.1601 32.1968 11.166C32.2581 11.1718 32.3177 11.1898 32.372 11.2187L34.0283 12.099C34.0826 12.1279 34.1308 12.1672 34.1699 12.2147C34.2091 12.2622 34.2385 12.317 34.2565 12.3759C34.2745 12.4348 34.2807 12.4966 34.2748 12.5579C34.2689 12.6192 34.2509 12.6787 34.222 12.733C34.1931 12.7874 34.1538 12.8355 34.1063 12.8747C34.0588 12.9138 34.004 12.9432 33.9451 12.9612C33.8863 12.9792 33.8244 12.9854 33.7631 12.9795C33.7018 12.9736 33.6423 12.9557 33.588 12.9268L31.9317 12.0465C31.8224 11.9877 31.7408 11.8881 31.7045 11.7695C31.6682 11.6508 31.6803 11.5226 31.738 11.4127ZM30.9489 4.29648L31.8292 2.64023C31.9172 2.47706 31.9721 2.2981 31.9907 2.11364C32.0093 1.92918 31.9912 1.74286 31.9375 1.56542C31.8838 1.38797 31.7956 1.22288 31.6779 1.07967C31.5601 0.936452 31.4152 0.817927 31.2515 0.730914C31.0878 0.643902 30.9085 0.590118 30.724 0.572657C30.5394 0.555196 30.3532 0.574404 30.1761 0.629174C29.999 0.683944 29.8344 0.773197 29.6919 0.891795C29.5494 1.01039 29.4318 1.156 29.3458 1.32023L28.4652 2.97617C28.376 3.13941 28.32 3.31872 28.3006 3.50372C28.2812 3.68872 28.2987 3.87574 28.3521 4.05393C28.4055 4.23212 28.4937 4.39796 28.6116 4.54183C28.7295 4.6857 28.8748 4.80475 29.039 4.89208C29.2033 4.97941 29.3832 5.03328 29.5684 5.05059C29.7536 5.06789 29.9404 5.04828 30.118 4.99288C30.2956 4.93749 30.4604 4.84741 30.6029 4.72787C30.7454 4.60833 30.8628 4.46171 30.9483 4.29648H30.9489ZM29.4873 4.05023C29.433 4.02135 29.3848 3.98204 29.3456 3.93454C29.3064 3.88705 29.277 3.83229 29.2589 3.77341C29.2409 3.71453 29.2347 3.65267 29.2406 3.59137C29.2465 3.53008 29.2644 3.47054 29.2933 3.41617L30.1736 1.75992C30.2023 1.70518 30.2415 1.65664 30.289 1.61711C30.3365 1.57757 30.3913 1.54782 30.4504 1.52957C30.5094 1.51131 30.5715 1.50491 30.633 1.51073C30.6945 1.51655 30.7543 1.53448 30.8088 1.56348C30.8634 1.59248 30.9117 1.63199 30.951 1.67973C30.9902 1.72747 31.0196 1.7825 31.0375 1.84165C31.0554 1.9008 31.0614 1.9629 31.0552 2.02439C31.049 2.08587 31.0307 2.14553 31.0014 2.19992L30.1211 3.85617C30.0628 3.96593 29.9632 4.04803 29.8444 4.08442C29.7256 4.12081 29.5971 4.10852 29.4873 4.05023Z" fill="black"/>
<path d="M36.4022 36.7183V26.562H38.3991C38.667 26.5619 38.9293 26.4853 39.1551 26.3411C39.3809 26.197 39.5608 25.9914 39.6737 25.7484C39.7866 25.5055 39.8278 25.2353 39.7924 24.9698C39.757 24.7043 39.6464 24.4544 39.4738 24.2495L36.8535 21.1445C36.6336 20.8835 36.3594 20.6738 36.05 20.53C35.7406 20.3862 35.4034 20.3118 35.0622 20.312H17.6522C17.8641 20.0627 17.9924 19.7531 18.019 19.427C18.0456 19.1008 17.9691 18.7745 17.8003 18.4942L17.5135 18.0173C19.6154 17.9182 21.7174 18.2117 23.7119 18.8826C24.065 19.3159 24.557 19.6137 25.1046 19.7256C25.6522 19.8374 26.2216 19.7565 26.7163 19.4965C27.2111 19.2365 27.6007 18.8134 27.8191 18.299C28.0375 17.7845 28.0713 17.2104 27.9147 16.6739L26.77 12.9348C27.4911 12.4552 28.0382 11.7557 28.3299 10.9402C28.6216 10.1248 28.6424 9.23701 28.3892 8.40882C28.136 7.58062 27.6223 6.85624 26.9245 6.34334C26.2267 5.83045 25.382 5.55643 24.516 5.56201L23.3725 1.8217C23.201 1.28876 22.8504 0.831545 22.3803 0.527548C21.9101 0.223551 21.3493 0.091478 20.7929 0.153716C20.2365 0.215955 19.7188 0.468676 19.3274 0.86904C18.9361 1.2694 18.6952 1.79278 18.6456 2.35045C16.0956 5.7967 12.0122 7.83482 9.01846 8.9392C8.56377 9.10701 7.12409 9.51795 7.10096 9.52451C6.26933 9.77989 5.57294 10.3547 5.16455 11.1228C4.75616 11.891 4.66912 12.7898 4.92252 13.622L6.01877 17.2079C6.27736 18.0391 6.85412 18.7343 7.62325 19.1418C8.39237 19.5494 9.29145 19.6363 10.1244 19.3836L10.3488 19.3111L10.8906 20.312H4.92971C4.58855 20.3117 4.25144 20.386 3.94202 20.5297C3.6326 20.6734 3.35834 20.883 3.13846 21.1439L0.51846 24.2495C0.345834 24.4543 0.2353 24.7042 0.199862 24.9697C0.164423 25.2352 0.205556 25.5053 0.31842 25.7483C0.431284 25.9912 0.611184 26.1968 0.836953 26.341C1.06272 26.4852 1.32497 26.5618 1.59284 26.562H3.58971V36.7183C3.5907 37.5882 3.93672 38.4222 4.55186 39.0374C5.167 39.6525 6.00102 39.9985 6.87096 39.9995H33.121C33.9909 39.9985 34.8249 39.6525 35.4401 39.0374C36.0552 38.4222 36.4012 37.5882 36.4022 36.7183ZM35.0622 21.2495C35.267 21.2494 35.4693 21.294 35.655 21.3804C35.8406 21.4668 36.0051 21.5928 36.1369 21.7495L38.7572 24.8542C38.8146 24.9225 38.8513 25.0057 38.863 25.0941C38.8747 25.1826 38.861 25.2725 38.8234 25.3534C38.7858 25.4343 38.7259 25.5027 38.6507 25.5508C38.5756 25.5988 38.4883 25.6244 38.3991 25.6245H30.786C30.445 25.6247 30.1081 25.5502 29.7989 25.4065C29.4897 25.2627 29.2156 25.0531 28.996 24.7923L26.005 21.2495H35.0622ZM27.4931 8.68201C27.6721 9.27103 27.6712 9.90004 27.4907 10.4886C27.3102 11.0771 26.9582 11.5984 26.4797 11.9858L24.8056 6.5092C25.4191 6.56257 26.0026 6.79789 26.4814 7.185C26.9602 7.57212 27.3125 8.09339 27.4931 8.68201ZM20.6316 1.13982C21.0029 1.02657 21.4037 1.0632 21.7484 1.24188C22.093 1.42055 22.3539 1.72706 22.4753 2.09576C23.5919 5.81451 25.8447 13.2461 27.016 16.9479C27.1225 17.3219 27.078 17.7227 26.8922 18.0642C26.7064 18.4058 26.394 18.6608 26.0222 18.7745C25.6504 18.8881 25.2488 18.8514 24.9038 18.6722C24.5587 18.493 24.2977 18.1856 24.1769 17.8161C23.0422 14.1029 20.8085 6.66545 19.6369 2.96357C19.5321 2.5899 19.5774 2.19007 19.7633 1.84936C19.9491 1.50865 20.2607 1.25403 20.6316 1.13982ZM18.8503 3.6017L23.1685 17.7267C19.3272 16.6233 15.226 17.1017 12.2403 17.7892L9.7569 9.66138C12.6156 8.56201 16.2838 6.66482 18.8516 3.6017H18.8503ZM14.7947 18.2623C15.3458 18.1828 15.8993 18.1213 16.4544 18.0779L16.996 18.9792C17.0438 19.0602 17.0727 19.1509 17.0806 19.2447C17.0884 19.3384 17.0751 19.4327 17.0414 19.5205C17.0078 19.6083 16.9547 19.6875 16.8863 19.7519C16.8178 19.8164 16.7357 19.8646 16.646 19.8929L15.8147 20.147L14.7947 18.2623ZM14.8397 20.312H11.9569L11.2594 19.0236C12.0971 18.7678 12.9506 18.5666 13.8144 18.4214L14.8397 20.312ZM9.8419 18.4898C9.24753 18.6685 8.60663 18.6053 8.05863 18.3139C7.51062 18.0226 7.09984 17.5266 6.91565 16.9339L5.81909 13.3479C5.63767 12.7549 5.69867 12.1142 5.98872 11.5661C6.27877 11.018 6.77424 10.6071 7.36659 10.4236C7.41284 10.4108 8.25909 10.1689 8.87252 9.97545L11.3325 18.022C10.7163 18.2048 9.88127 18.477 9.8419 18.4898ZM1.59284 25.6245C1.50353 25.6245 1.41609 25.5989 1.34081 25.5509C1.26554 25.5028 1.20556 25.4342 1.16793 25.3532C1.13031 25.2722 1.1166 25.1822 1.12843 25.0937C1.14026 25.0051 1.17714 24.9218 1.23471 24.8536L3.85471 21.7495C3.98657 21.5928 4.15113 21.4668 4.33683 21.3804C4.52254 21.2941 4.7249 21.2494 4.92971 21.2495H23.9869L20.996 24.7923C20.7763 25.0531 20.5023 25.2627 20.193 25.4065C19.8838 25.5502 19.5469 25.6247 19.206 25.6245H1.59284ZM24.5272 39.062H6.87096C6.24956 39.0613 5.6538 38.8142 5.21441 38.3748C4.77501 37.9354 4.52787 37.3397 4.52721 36.7183V26.562H19.206C19.6838 26.5627 20.156 26.4588 20.5894 26.2575C21.0228 26.0562 21.4069 25.7625 21.7147 25.397L24.5272 22.0633V39.062ZM33.121 39.062H25.4647V22.062L28.2772 25.3958C28.5849 25.7615 28.9689 26.0555 29.4023 26.2569C29.8357 26.4584 30.308 26.5626 30.786 26.562H35.4647V36.7183C35.464 37.3397 35.2169 37.9354 34.7775 38.3748C34.3381 38.8142 33.7424 39.0613 33.121 39.062Z" fill="black"/>
<path d="M22.3438 36.0938H19.5312C19.4069 36.0938 19.2877 36.1431 19.1998 36.231C19.1119 36.319 19.0625 36.4382 19.0625 36.5625C19.0625 36.6868 19.1119 36.806 19.1998 36.894C19.2877 36.9819 19.4069 37.0312 19.5312 37.0312H22.3438C22.4681 37.0312 22.5873 36.9819 22.6752 36.894C22.7631 36.806 22.8125 36.6868 22.8125 36.5625C22.8125 36.4382 22.7631 36.319 22.6752 36.231C22.5873 36.1431 22.4681 36.0938 22.3438 36.0938ZM19.0625 34.0625C19.0625 34.1868 19.1119 34.306 19.1998 34.394C19.2877 34.4819 19.4069 34.5312 19.5312 34.5312H22.3438C22.4681 34.5312 22.5873 34.4819 22.6752 34.394C22.7631 34.306 22.8125 34.1868 22.8125 34.0625C22.8125 33.9382 22.7631 33.819 22.6752 33.731C22.5873 33.6431 22.4681 33.5938 22.3438 33.5938H19.5312C19.4069 33.5938 19.2877 33.6431 19.1998 33.731C19.1119 33.819 19.0625 33.9382 19.0625 34.0625ZM11.4062 33.75H7.34375C7.09511 33.75 6.85665 33.8488 6.68084 34.0246C6.50502 34.2004 6.40625 34.4389 6.40625 34.6875V36.25C6.40625 36.4986 6.50502 36.7371 6.68084 36.9129C6.85665 37.0887 7.09511 37.1875 7.34375 37.1875H11.4062C11.6549 37.1875 11.8933 37.0887 12.0692 36.9129C12.245 36.7371 12.3438 36.4986 12.3438 36.25V34.6875C12.3438 34.4389 12.245 34.2004 12.0692 34.0246C11.8933 33.8488 11.6549 33.75 11.4062 33.75ZM7.34375 36.25V34.6875H11.4062V36.25H7.34375Z" fill="black"/>
</g>
<defs>
<clipPath id="clip0_831_32289">
<rect width="40" height="40" fill="white"/>
</clipPath>
</defs>
</svg>
