<svg width="40" height="40" viewBox="0 0 40 40" fill="none" xmlns="http://www.w3.org/2000/svg">
<g clip-path="url(#clip0_826_23426)">
<path d="M39.3542 21.897C38.3717 20.2424 36.9838 18.8654 35.3215 17.8959C33.6104 16.8998 31.6543 16.373 29.6642 16.373C27.6742 16.373 25.718 16.8998 24.0068 17.8959C22.3446 18.8655 20.9568 20.2425 19.9743 21.897C19.125 23.3302 19.1122 25.0532 19.9404 26.5067C20.7769 27.9755 22.2836 28.852 23.9703 28.852H35.3582C37.0452 28.852 38.5515 27.9752 39.3883 26.5067C40.2163 25.0532 40.2035 23.3302 39.3542 21.897Z" fill="#19CFFC"/>
<path d="M35.3217 17.8942C33.6109 16.8978 31.6545 16.3711 29.6644 16.3711H29.6641V28.8503H35.3584C37.0454 28.8503 38.5517 27.9736 39.3882 26.505C40.2165 25.0515 40.2037 23.3282 39.3543 21.8954C38.372 20.2406 36.9841 18.8635 35.3217 17.8942Z" fill="#4AB8F7"/>
<path d="M34.1324 8.02367C32.9383 6.82953 31.3508 6.17188 29.6619 6.17188C27.973 6.17188 26.3855 6.82953 25.1917 8.02367C23.9975 9.21781 23.3398 10.8054 23.3398 12.4939C23.3398 14.1827 23.9975 15.7702 25.1917 16.9645C26.3855 18.1586 27.973 18.8163 29.6619 18.8163C31.3508 18.8163 32.9383 18.1586 34.1324 16.9645C35.3266 15.7702 35.9842 14.1827 35.9842 12.4939C35.9842 10.8054 35.3266 9.21781 34.1324 8.02367Z" fill="#FFD2BF"/>
<path d="M34.1349 8.02258C32.9023 6.78992 31.2834 6.17383 29.6641 6.17383V18.8121H29.6644C31.2834 18.8121 32.9023 18.1959 34.1349 16.9633C36.5998 14.4984 36.5998 10.4875 34.1349 8.02258Z" fill="#FFB89C"/>
<path d="M20.026 21.897C19.0436 20.2424 17.6557 18.8654 15.9935 17.8959C14.2826 16.8998 12.3261 16.373 10.3361 16.373C8.34604 16.373 6.38987 16.8998 4.67877 17.8959C3.01657 18.8654 1.62874 20.2424 0.646196 21.897C-0.203179 23.3298 -0.215991 25.0531 0.61229 26.5066C1.44877 27.9752 2.95542 28.852 4.64213 28.852H16.0304C17.7171 28.852 19.2234 27.9755 20.0603 26.5066C20.8881 25.0534 20.8753 23.3302 20.026 21.897Z" fill="#27488F"/>
<path d="M15.9936 17.8942C14.2827 16.8978 12.3262 16.3711 10.3362 16.3711H10.3359V28.8503H16.0302C17.7172 28.8503 19.2236 27.9736 20.0601 26.505C20.8883 25.0515 20.8755 23.3282 20.0262 21.8954C19.0439 20.2406 17.656 18.8635 15.9936 17.8942Z" fill="#12254C"/>
<path d="M14.8081 8.02367C13.614 6.82953 12.0265 6.17188 10.3377 6.17188C8.64914 6.17188 7.06125 6.82953 5.86742 8.02367C4.67328 9.21781 4.01562 10.8055 4.01562 12.4939C4.01562 14.1827 4.67328 15.7702 5.86742 16.9645C7.06125 18.1586 8.64914 18.8163 10.3377 18.8163C12.0265 18.8163 13.614 18.1586 14.8081 16.9645C16.0023 15.7702 16.66 14.1827 16.66 12.4939C16.66 10.8054 16.0023 9.21781 14.8081 8.02367Z" fill="#FFD2BF"/>
<path d="M14.8067 8.02258C13.5741 6.78992 11.9552 6.17383 10.3359 6.17383V18.8121H10.3362C11.9552 18.8121 13.5741 18.1959 14.8067 16.9633C17.2716 14.4984 17.2716 10.4875 14.8067 8.02258Z" fill="#FFB89C"/>
<path d="M29.6897 26.9146C28.7076 25.2598 27.3198 23.8827 25.6575 22.9134C23.9464 21.917 21.9902 21.3906 20.0001 21.3906C18.01 21.3906 16.0536 21.917 14.3428 22.9134C12.6804 23.8827 11.2925 25.2598 10.3102 26.9146C9.4609 28.3474 9.44809 30.0707 10.2763 31.5243C11.1128 32.9928 12.6191 33.8696 14.3061 33.8696H25.6941C27.3808 33.8696 28.8875 32.9928 29.724 31.5243C30.5519 30.0707 30.5393 28.3474 29.6897 26.9146Z" fill="#FE6A16"/>
<path d="M25.6577 22.9138C23.9466 21.9173 21.9904 21.3906 20.0003 21.3906H20V33.8698H25.6943C27.381 33.8698 28.8877 32.993 29.7241 31.5245C30.552 30.0709 30.5395 28.3477 29.6899 26.9148C28.7078 25.2601 27.32 23.8831 25.6577 22.9138Z" fill="#FF432E"/>
<path d="M24.4694 13.0401C22.0042 10.5752 17.9936 10.5752 15.5283 13.0401C13.0635 15.5049 13.0635 19.5159 15.5283 21.9808C16.761 23.2134 18.3799 23.8296 19.9989 23.8296C21.6179 23.8296 23.2368 23.2134 24.4694 21.9808C26.9343 19.516 26.9343 15.505 24.4694 13.0401Z" fill="#FFD2BF"/>
<path d="M24.4709 13.0402C23.2382 11.8075 21.619 11.1914 20 11.1914V23.8297H20.0003C21.6193 23.8297 23.2382 23.2134 24.4709 21.9809C26.9357 19.516 26.9357 15.5051 24.4709 13.0402Z" fill="#FFB89C"/>
</g>
<defs>
<clipPath id="clip0_826_23426">
<rect width="40" height="40" fill="white"/>
</clipPath>
</defs>
</svg>
