<svg width="40" height="40" viewBox="0 0 40 40" fill="none" xmlns="http://www.w3.org/2000/svg">
<g clip-path="url(#clip0_826_23309)">
<path d="M1.97226 13.3263L15.9367 1.97057C18.303 0.0462696 21.6948 0.0462696 24.0612 1.97057L38.0256 13.3263C39.2012 14.2823 38.5252 16.1849 37.0101 16.1849H2.9878C1.47273 16.1849 0.796789 14.2823 1.97226 13.3263Z" fill="#F25D1B"/>
<path d="M36.3355 20.2087H36.3403V38.1057H32.3951C22.5359 36.5049 12.6172 28.3319 12.6172 18.4912C12.6172 12.8776 17.4744 7.80633 21.4027 4.18945L36.3403 16.1846L36.3355 20.2087Z" fill="#92C7CE"/>
<path d="M32.3958 38.1048H3.66016V20.2077H3.665L3.66016 16.1836L20.0006 3.0625L21.4034 4.18844C17.4751 7.80539 15.0324 12.8766 15.0324 18.4902C15.0324 28.3309 22.5366 36.5039 32.3958 38.1048Z" fill="#689AAA"/>
<path d="M24.0252 12.8773H15.977C14.6434 12.8773 13.5625 11.7962 13.5625 10.4628V2.41445C13.5625 1.08102 14.6434 0 15.977 0H24.0252C25.3587 0 26.4397 1.08102 26.4397 2.41445V10.4627C26.4397 11.7963 25.3587 12.8773 24.0252 12.8773Z" fill="#FFF8E6"/>
<path d="M23.2201 4.68484H22.1566C22.1037 4.68485 22.0514 4.67445 22.0026 4.65423C21.9537 4.63401 21.9094 4.60437 21.872 4.567C21.8346 4.52963 21.805 4.48526 21.7848 4.43643C21.7645 4.38761 21.7541 4.33527 21.7541 4.28242V3.21891C21.7541 2.77437 21.3938 2.41406 20.9493 2.41406H19.0522C18.6077 2.41406 18.2473 2.77437 18.2473 3.21891V4.28242C18.2474 4.33527 18.237 4.38761 18.2167 4.43643C18.1965 4.48526 18.1669 4.52963 18.1295 4.567C18.0921 4.60437 18.0478 4.63401 17.9989 4.65423C17.9501 4.67445 17.8978 4.68485 17.8449 4.68484H16.7814C16.3369 4.68484 15.9766 5.04516 15.9766 5.48969V7.3868C15.9766 7.83133 16.3369 8.19164 16.7814 8.19164H17.8449C17.8978 8.19163 17.9501 8.20203 17.9989 8.22225C18.0478 8.24247 18.0921 8.27211 18.1295 8.30948C18.1669 8.34686 18.1965 8.39122 18.2167 8.44005C18.237 8.48888 18.2474 8.54121 18.2473 8.59406V9.65758C18.2473 10.1021 18.6077 10.4624 19.0522 10.4624H20.9493C21.3938 10.4624 21.7541 10.1021 21.7541 9.65758V8.59406C21.7541 8.54121 21.7645 8.48888 21.7848 8.44005C21.805 8.39122 21.8346 8.34686 21.872 8.30948C21.9094 8.27211 21.9537 8.24247 22.0026 8.22225C22.0514 8.20203 22.1037 8.19163 22.1566 8.19164H23.2201C23.6646 8.19164 24.0249 7.83133 24.0249 7.3868V5.48969C24.0249 5.04523 23.6646 4.68484 23.2201 4.68484Z" fill="#F25D1B"/>
<path d="M30.8631 32.855C30.8631 37.9889 25.9986 39.5753 19.998 39.5753C13.9973 39.5753 9.13281 37.9889 9.13281 32.855C9.13281 27.7211 13.9973 21.8691 19.998 21.8691C25.9987 21.8691 30.8631 27.7211 30.8631 32.855Z" fill="#FDCB89"/>
<path d="M1.60969 40.0006H38.3904C39.2794 40.0006 40.0001 39.2799 40.0001 38.3909C40.0001 37.502 39.2794 36.7812 38.3904 36.7812H1.60969C0.720703 36.7813 0 37.502 0 38.3909C0 39.2799 0.720703 40.0006 1.60969 40.0006Z" fill="#F25D1B"/>
<path d="M30.3052 33.4473C28.7495 33.4473 27.4883 34.5798 27.4883 35.9767C27.4883 37.3737 28.7495 37.5864 30.3052 37.5864C31.8609 37.5864 33.122 37.3737 33.122 35.9767C33.1221 34.5798 31.8609 33.4473 30.3052 33.4473Z" fill="#FFEAB7"/>
<path d="M10.8079 23.4878C9.90137 22.2094 9.24254 20.4846 8.77598 18.4131C8.53317 17.335 9.38559 16.3192 10.4894 16.371C12.6105 16.4707 14.4235 16.8201 15.84 17.4908C15.8732 19.2221 12.5186 23.2199 10.8079 23.4878Z" fill="#FDCB89"/>
<path d="M29.1964 23.4878C30.1029 22.2094 30.7617 20.4846 31.2283 18.4131C31.4711 17.335 30.6187 16.3192 29.5149 16.371C27.3938 16.4707 25.5808 16.8201 24.1643 17.4908C24.1311 19.2221 27.4857 23.2199 29.1964 23.4878Z" fill="#FFD9A0"/>
<path d="M30.3435 25.5148C30.3435 28.9787 28.2204 31.1494 25.0767 32.19C18.8973 32.19 14.5 27.6812 14.5 22.5439C14.5 20.3773 16.4463 17.5625 18.6839 16.0652C19.1145 16.0129 19.5531 15.9863 19.9982 15.9863C25.7117 15.9864 30.3435 20.3985 30.3435 25.5148Z" fill="#FFEAB7"/>
<path d="M25.0801 32.1911C23.5798 32.6877 21.847 32.9276 20.0016 32.9276C14.288 32.9276 9.65625 30.633 9.65625 25.5159C9.65625 20.798 13.5943 16.6797 18.6873 16.0664C17.6257 17.7348 17.006 19.7469 17.006 21.9135C17.006 27.0507 20.4909 31.3211 25.0801 32.1911Z" fill="#FCE3A0"/>
<path d="M13.5917 27.853C14.898 27.853 15.9569 27.0097 15.9569 25.9695C15.9569 24.9292 14.898 24.0859 13.5917 24.0859C12.2855 24.0859 11.2266 24.9292 11.2266 25.9695C11.2266 27.0097 12.2855 27.853 13.5917 27.853Z" fill="#FFA1AC"/>
<path d="M26.412 27.853C27.7183 27.853 28.7772 27.0097 28.7772 25.9695C28.7772 24.9292 27.7183 24.0859 26.412 24.0859C25.1058 24.0859 24.0469 24.9292 24.0469 25.9695C24.0469 27.0097 25.1058 27.853 26.412 27.853Z" fill="#FFA1AC"/>
<path d="M21.908 24.5232C21.908 23.3447 21.0543 23.234 20.0011 23.234C18.948 23.234 18.0941 23.3447 18.0941 24.5232C18.0941 25.7017 18.9479 26.657 20.0011 26.657C21.0543 26.657 21.908 25.7017 21.908 24.5232ZM13.9864 24.3253C13.9071 24.3253 13.8286 24.3097 13.7554 24.2794C13.6822 24.2491 13.6156 24.2046 13.5596 24.1485C13.5035 24.0925 13.4591 24.026 13.4287 23.9527C13.3984 23.8795 13.3828 23.801 13.3828 23.7217V22.7559C13.3828 22.5959 13.4464 22.4423 13.5596 22.3291C13.6728 22.2159 13.8263 22.1523 13.9864 22.1523C14.1465 22.1523 14.3 22.2159 14.4132 22.3291C14.5264 22.4423 14.59 22.5959 14.59 22.7559V23.7217C14.59 23.801 14.5744 23.8795 14.5441 23.9527C14.5137 24.026 14.4693 24.0925 14.4132 24.1485C14.3572 24.2046 14.2906 24.2491 14.2174 24.2794C14.1442 24.3097 14.0657 24.3253 13.9864 24.3253ZM26.0158 24.3253C25.9365 24.3253 25.858 24.3097 25.7848 24.2794C25.7115 24.2491 25.645 24.2046 25.589 24.1485C25.5329 24.0925 25.4884 24.026 25.4581 23.9527C25.4278 23.8795 25.4122 23.801 25.4122 23.7217V22.7559C25.4122 22.6767 25.4278 22.5982 25.4581 22.5249C25.4884 22.4517 25.5329 22.3852 25.589 22.3291C25.645 22.2731 25.7115 22.2286 25.7848 22.1983C25.858 22.1679 25.9365 22.1523 26.0158 22.1523C26.095 22.1523 26.1735 22.1679 26.2468 22.1983C26.32 22.2286 26.3866 22.2731 26.4426 22.3291C26.4987 22.3852 26.5431 22.4517 26.5734 22.5249C26.6038 22.5982 26.6194 22.6767 26.6194 22.7559V23.7217C26.6194 23.801 26.6038 23.8795 26.5734 23.9527C26.5431 24.026 26.4987 24.0925 26.4426 24.1485C26.3866 24.2046 26.32 24.2491 26.2468 24.2794C26.1735 24.3097 26.095 24.3253 26.0158 24.3253Z" fill="#666667"/>
<path d="M9.69578 33.4473C8.14008 33.4473 6.87891 34.5798 6.87891 35.9767C6.87891 37.3737 8.14008 37.5864 9.69578 37.5864C11.2515 37.5864 12.5127 37.3737 12.5127 35.9767C12.5127 34.5798 11.2515 33.4473 9.69578 33.4473Z" fill="#FCE3A0"/>
</g>
<defs>
<clipPath id="clip0_826_23309">
<rect width="40" height="40" fill="white"/>
</clipPath>
</defs>
</svg>
