<svg width="40" height="40" viewBox="0 0 40 40" fill="none" xmlns="http://www.w3.org/2000/svg">
<g clip-path="url(#clip0_826_24900)">
<path d="M2.34375 25.7812H9.45312V38.8281H2.34375V25.7812ZM21.1719 23.4375H28.2812V38.8281H21.1719V23.4375Z" fill="#FED843"/>
<path d="M11.7969 18.75H18.8281V38.8281H11.7969V18.75ZM30.625 14.0625H37.6562V38.8281H30.625V14.0625Z" fill="#FF641A"/>
<path d="M5.9375 25.7812H9.45312V38.8281H5.9375V25.7812Z" fill="#FABE2C"/>
<path d="M15.3125 18.75H18.8281V38.8281H15.3125V18.75Z" fill="#F03800"/>
<path d="M24.6875 23.4375H28.2812V38.8281H24.6875V23.4375Z" fill="#FABE2C"/>
<path d="M34.1406 14.0625H37.6562V38.8281H34.1406V14.0625Z" fill="#F03800"/>
<path d="M30.6254 0V2.34375H35.9995L24.6879 13.5773L20.0004 8.88977L15.3129 4.20227L0.34375 19.0934L2.00078 20.7504L15.3129 7.51648L20.0004 12.204L24.6879 16.8915L37.6566 4.00086V9.375H40.0004V0H30.6254Z" fill="#97DE3D"/>
<path d="M37.6562 4.00086V9.375H40V0H30.625V2.34375H35.9991L24.6875 13.5773L20 8.88976V12.204L24.6875 16.8915L37.6562 4.00086Z" fill="#59C36A"/>
<path d="M20 37.6562H0V40H40V37.6562H20Z" fill="#2D5177"/>
<path d="M20 37.6562H40V40H20V37.6562Z" fill="#32405D"/>
</g>
<defs>
<clipPath id="clip0_826_24900">
<rect width="40" height="40" fill="white"/>
</clipPath>
</defs>
</svg>
